<svg width="19" height="14" viewBox="0 0 19 14" fill="none" xmlns="http://www.w3.org/2000/svg">
<path d="M4.7915 13.25C3.73175 13.2535 2.71392 12.8363 1.9615 12.09C1.19764 11.2785 0.784903 10.1983 0.812991 9.08416C0.841078 7.97003 1.30772 6.91201 2.1115 6.14L5.8715 2.35C6.68878 1.50634 7.80707 1.0209 8.9815 1C9.50904 1.00352 10.0307 1.11135 10.5164 1.3173C11.0021 1.52325 11.4422 1.82324 11.8115 2.2C12.5858 3.01629 13.0048 4.10627 12.9766 5.231C12.9485 6.35573 12.4756 7.42342 11.6615 8.2L10.4015 9.46C10.3328 9.53369 10.25 9.59279 10.158 9.63378C10.066 9.67477 9.96673 9.69681 9.86602 9.69859C9.76532 9.70037 9.66529 9.68184 9.5719 9.64412C9.47851 9.6064 9.39368 9.55026 9.32246 9.47904C9.25124 9.40782 9.1951 9.32299 9.15738 9.2296C9.11966 9.13621 9.10113 9.03618 9.10291 8.93548C9.10468 8.83477 9.12673 8.73546 9.16772 8.64346C9.20871 8.55146 9.26781 8.46866 9.3415 8.4L10.5615 7.1C11.0862 6.60758 11.3953 5.9279 11.4215 5.2088C11.4477 4.4897 11.189 3.78933 10.7015 3.26C10.1686 2.7953 9.47819 2.55197 8.77169 2.57986C8.06519 2.60774 7.3961 2.90474 6.9015 3.41L3.1715 7.19C2.65663 7.68125 2.35307 8.35355 2.32508 9.06463C2.29708 9.77571 2.54684 10.4698 3.0215 11C3.28238 11.2578 3.59678 11.4551 3.94242 11.5778C4.28806 11.7005 4.65646 11.7456 5.0215 11.71C5.11876 11.7004 5.21696 11.7101 5.31044 11.7386C5.40392 11.7671 5.49083 11.8139 5.56614 11.8762C5.64145 11.9385 5.70368 12.0151 5.74922 12.1015C5.79477 12.188 5.82273 12.2827 5.8315 12.38C5.85106 12.5775 5.79152 12.7747 5.66593 12.9284C5.54035 13.0821 5.35895 13.1798 5.1615 13.2L4.7915 13.25Z" fill="black"/>
<path d="M10.1415 13C9.61396 12.9965 9.09232 12.8887 8.60663 12.6827C8.12093 12.4768 7.68077 12.1768 7.3115 11.8C6.53723 10.9837 6.11823 9.89373 6.14635 8.769C6.17447 7.64427 6.64741 6.57658 7.4615 5.8L8.7215 4.54C8.79016 4.46632 8.87296 4.40721 8.96496 4.36622C9.05696 4.32523 9.15627 4.30319 9.25697 4.30141C9.35768 4.29964 9.45771 4.31816 9.55109 4.35588C9.64448 4.3936 9.72932 4.44975 9.80054 4.52097C9.87175 4.59218 9.9279 4.67702 9.96562 4.77041C10.0033 4.86379 10.0219 4.96382 10.0201 5.06453C10.0183 5.16523 9.99627 5.26454 9.95528 5.35654C9.91429 5.44854 9.85518 5.53134 9.7815 5.6L8.5615 6.9C8.03679 7.39243 7.72772 8.0721 7.70151 8.7912C7.67529 9.51031 7.93404 10.2107 8.4215 10.74C8.95439 11.2047 9.64481 11.448 10.3513 11.4201C11.0578 11.3923 11.7269 11.0953 12.2215 10.59L15.9915 6.81C16.5008 6.31343 16.797 5.63827 16.8175 4.92727C16.8381 4.21626 16.5813 3.52513 16.1015 3C15.8406 2.7422 15.5262 2.54495 15.1806 2.42224C14.8349 2.29954 14.4665 2.2544 14.1015 2.29C14.0042 2.29964 13.906 2.28992 13.8126 2.2614C13.7191 2.23287 13.6322 2.18612 13.5569 2.12382C13.4815 2.06153 13.4193 1.98493 13.3738 1.89846C13.3282 1.81199 13.3003 1.71735 13.2915 1.62C13.2719 1.42248 13.3315 1.22527 13.4571 1.07156C13.5827 0.917862 13.764 0.82021 13.9615 0.800004C14.5436 0.739665 15.1319 0.807794 15.6848 0.999586C16.2377 1.19138 16.7418 1.50216 17.1615 1.91C17.9254 2.72153 18.3381 3.80172 18.31 4.91585C18.2819 6.02997 17.8153 7.088 17.0115 7.86L13.2515 11.65C12.4342 12.4937 11.3159 12.9791 10.1415 13Z" fill="black"/>
</svg>
