<svg width="11" height="19" viewBox="0 0 11 19" fill="none" xmlns="http://www.w3.org/2000/svg">
<path d="M7.41277 0.327637C6.18614 0.327637 5.00976 0.814912 4.1424 1.68227C3.27504 2.54962 2.78777 3.72601 2.78777 4.95264V7.52764H0.312768C0.188768 7.52764 0.0877686 7.62764 0.0877686 7.75264V11.1526C0.0877686 11.2766 0.187768 11.3776 0.312768 11.3776H2.78777V18.3526C2.78777 18.4766 2.88777 18.5776 3.01277 18.5776H6.41277C6.53677 18.5776 6.63777 18.4776 6.63777 18.3526V11.3776H9.13477C9.23777 11.3776 9.32777 11.3076 9.35277 11.2076L10.2028 7.80764C10.2111 7.77446 10.2118 7.73981 10.2048 7.70633C10.1977 7.67285 10.1831 7.64141 10.1621 7.61441C10.1411 7.58741 10.1142 7.56557 10.0835 7.55053C10.0527 7.53549 10.019 7.52766 9.98477 7.52764H6.63777V4.95264C6.63777 4.85086 6.65781 4.75008 6.69676 4.65606C6.73571 4.56203 6.79279 4.47659 6.86476 4.40463C6.93673 4.33266 7.02216 4.27558 7.11619 4.23663C7.21022 4.19768 7.31099 4.17764 7.41277 4.17764H10.0128C10.1368 4.17764 10.2378 4.07764 10.2378 3.95264V0.552637C10.2378 0.428637 10.1378 0.327637 10.0128 0.327637H7.41277Z" fill="white"/>
</svg>
