<svg width="20" height="21" viewBox="0 0 20 21" fill="none" xmlns="http://www.w3.org/2000/svg">
<path d="M5.8 0H14.2C17.4 0 20 2.61724 20 5.83846V14.2942C20 15.8426 19.3889 17.3276 18.3012 18.4226C17.2135 19.5175 15.7383 20.1326 14.2 20.1326H5.8C2.6 20.1326 0 17.5154 0 14.2942V5.83846C0 4.29 0.61107 2.80497 1.69878 1.71004C2.78649 0.615122 4.26174 0 5.8 0ZM5.6 2.01326C4.64522 2.01326 3.72955 2.39506 3.05442 3.07467C2.37928 3.75428 2 4.67602 2 5.63713V14.4955C2 16.4987 3.61 18.1194 5.6 18.1194H14.4C15.3548 18.1194 16.2705 17.7376 16.9456 17.0579C17.6207 16.3783 18 15.4566 18 14.4955V5.63713C18 3.63394 16.39 2.01326 14.4 2.01326H5.6ZM15.25 3.52321C15.5815 3.52321 15.8995 3.65578 16.1339 3.89175C16.3683 4.12773 16.5 4.44778 16.5 4.7815C16.5 5.11521 16.3683 5.43527 16.1339 5.67124C15.8995 5.90721 15.5815 6.03978 15.25 6.03978C14.9185 6.03978 14.6005 5.90721 14.3661 5.67124C14.1317 5.43527 14 5.11521 14 4.7815C14 4.44778 14.1317 4.12773 14.3661 3.89175C14.6005 3.65578 14.9185 3.52321 15.25 3.52321ZM10 5.03315C11.3261 5.03315 12.5979 5.56343 13.5355 6.50733C14.4732 7.45123 15 8.73143 15 10.0663C15 11.4012 14.4732 12.6814 13.5355 13.6253C12.5979 14.5692 11.3261 15.0995 10 15.0995C8.67392 15.0995 7.40215 14.5692 6.46447 13.6253C5.52678 12.6814 5 11.4012 5 10.0663C5 8.73143 5.52678 7.45123 6.46447 6.50733C7.40215 5.56343 8.67392 5.03315 10 5.03315ZM10 7.04641C9.20435 7.04641 8.44129 7.36458 7.87868 7.93092C7.31607 8.49726 7 9.26538 7 10.0663C7 10.8672 7.31607 11.6354 7.87868 12.2017C8.44129 12.768 9.20435 13.0862 10 13.0862C10.7956 13.0862 11.5587 12.768 12.1213 12.2017C12.6839 11.6354 13 10.8672 13 10.0663C13 9.26538 12.6839 8.49726 12.1213 7.93092C11.5587 7.36458 10.7956 7.04641 10 7.04641Z" fill="white"/>
</svg>
