<svg width="25" height="24" viewBox="0 0 25 24" fill="none" xmlns="http://www.w3.org/2000/svg">
<path d="M20.1288 10.187C20.2917 10.1935 20.4457 10.2627 20.5587 10.3803C20.6716 10.4978 20.7347 10.6545 20.7347 10.8175C20.7347 10.9805 20.6716 11.1371 20.5587 11.2547C20.4457 11.3722 20.2917 11.4415 20.1288 11.448H18.3738V12.573H20.1288C20.2136 12.5696 20.2982 12.5834 20.3775 12.6135C20.4568 12.6436 20.5292 12.6894 20.5904 12.7482C20.6516 12.807 20.7003 12.8775 20.7335 12.9556C20.7668 13.0336 20.7839 13.1176 20.7839 13.2025C20.7839 13.2873 20.7668 13.3713 20.7335 13.4493C20.7003 13.5274 20.6516 13.5979 20.5904 13.6567C20.5292 13.7155 20.4568 13.7613 20.3775 13.7915C20.2982 13.8216 20.2136 13.8353 20.1288 13.832H17.7428C17.5764 13.8312 17.4171 13.7646 17.2996 13.6467C17.1821 13.5289 17.1161 13.3694 17.1158 13.203V8.43197C17.1158 8.08697 17.3978 7.80197 17.7458 7.80197H20.1318C20.2989 7.80236 20.459 7.86912 20.5768 7.98755C20.6947 8.10598 20.7607 8.26638 20.7603 8.43347C20.7599 8.60055 20.6931 8.76064 20.5747 8.8785C20.4563 8.99637 20.2959 9.06236 20.1288 9.06197H18.3738V10.187H20.1288ZM16.2738 13.203C16.273 13.3697 16.2061 13.5293 16.0879 13.6469C15.9696 13.7644 15.8095 13.8302 15.6428 13.83C15.544 13.8319 15.4462 13.8103 15.3575 13.7668C15.2688 13.7233 15.1917 13.6593 15.1328 13.58L12.6898 10.263V13.203C12.6788 13.3622 12.6078 13.5112 12.4911 13.6201C12.3745 13.729 12.2209 13.7895 12.0613 13.7895C11.9017 13.7895 11.7481 13.729 11.6315 13.6201C11.5148 13.5112 11.4438 13.3622 11.4328 13.203V8.43197C11.4325 8.26602 11.4981 8.10674 11.615 7.98902C11.732 7.87131 11.8909 7.80476 12.0568 7.80397C12.2518 7.80397 12.4318 7.90797 12.5518 8.05797L15.0138 11.388V8.43197C15.0138 8.08697 15.2958 7.80197 15.6438 7.80197C15.9888 7.80197 16.2738 8.08697 16.2738 8.43197V13.203ZM10.5328 13.203C10.5327 13.2857 10.5162 13.3676 10.4845 13.444C10.4527 13.5204 10.4062 13.5897 10.3476 13.6481C10.289 13.7066 10.2194 13.7529 10.143 13.7844C10.0665 13.8159 9.98453 13.8321 9.90179 13.832C9.7354 13.8312 9.57608 13.7646 9.45861 13.6467C9.34114 13.5289 9.27506 13.3694 9.27479 13.203V8.43197C9.27479 8.08697 9.55679 7.80197 9.90479 7.80197C10.2508 7.80197 10.5328 8.08697 10.5328 8.43197V13.203ZM8.06679 13.832H5.68079C5.5142 13.8309 5.35472 13.7643 5.23682 13.6466C5.11893 13.5289 5.0521 13.3696 5.05079 13.203V8.43197C5.05079 8.08697 5.33579 7.80197 5.68079 7.80197C6.02879 7.80197 6.31079 8.08697 6.31079 8.43197V12.573H8.06679C8.22941 12.5794 8.3832 12.6486 8.49596 12.766C8.60872 12.8833 8.6717 13.0397 8.6717 13.2025C8.6717 13.3652 8.60872 13.5216 8.49596 13.639C8.3832 13.7563 8.22941 13.8255 8.06679 13.832ZM24.7638 10.638C24.7638 5.26697 19.3788 0.895966 12.7638 0.895966C6.14879 0.895966 0.763794 5.26697 0.763794 10.638C0.763794 15.449 5.03379 19.48 10.7988 20.246C11.1898 20.328 11.7218 20.504 11.8568 20.836C11.9768 21.137 11.9358 21.602 11.8948 21.916L11.7308 22.936C11.6858 23.237 11.4908 24.122 12.7798 23.581C14.0708 23.042 19.6958 19.503 22.2158 16.606C23.9398 14.717 24.7638 12.782 24.7638 10.638Z" fill="white"/>
</svg>
