<?xml version="1.0" encoding="UTF-8"?><svg id="_レイヤー_2" xmlns="http://www.w3.org/2000/svg" viewBox="0 0 273.31 40.33"><defs><style>.cls-1{fill:#333;}</style></defs><g id="_レイヤー_1-2"><path class="cls-1" d="M23.52,8.43s7.11-1.42,7.33,1.53l.56,7.52s-.19-1.05-6.33-.69c-.51.03-.96-.36-1-.88-.16-2.19-.56-7.48-.56-7.48Z"/><path class="cls-1" d="M40.56,6.52s-7.28-.91-7.02,2.59l.56,7.5h0c.03-.15.43-1.08,6.16-1.6.51-.05.9-.5.86-1.01-.16-2.19-.56-7.48-.56-7.48Z"/><path class="cls-1" d="M26.09,37.77c0,.73-.33,1.35-1,1.83-.67.48-1.34.73-2.01.73-.77,0-1.46-.21-2.08-.63-.62-.42-.93-1.05-.93-1.88,0-.4.16-.89.48-1.45.32-.57.68-.92,1.08-1.05-1.2-1.54-2.65-2.93-4.34-4.19-1.69-1.25-3.48-2.37-5.37-3.34-1.89-.97-3.75-1.77-5.59-2.41-.8-.3-1.61-.56-2.43-.78-.82-.22-1.63-.46-2.43-.73-.97-.37-1.46-1.05-1.46-2.06,0-.4.12-.84.35-1.3.07-.13.13-.24.2-.33.07-.08.15-.17.25-.28,1.37-1.57,2.73-3.19,4.09-4.84s2.67-3.32,3.94-4.99c.87-1.07,1.72-2.17,2.56-3.29.84-1.12,1.57-2.28,2.21-3.49.2-.37.35-.75.45-1.15.1-.4.2-.8.3-1.2.1-.4.35-.6.75-.6.27,0,.66.13,1.18.4.52.27,1.06.6,1.63,1,.57.4,1.09.79,1.58,1.18.48.38.83.68,1.03.88.17.17.3.34.4.53s.15.41.15.68c0,.23-.36.7-1.08,1.4-.72.7-1.64,1.55-2.76,2.53-1.12.99-2.31,2.02-3.56,3.11-1.25,1.09-2.44,2.14-3.56,3.16-1.12,1.02-2.04,1.93-2.76,2.73-.72.8-1.08,1.39-1.08,1.76,0,.34.09.59.28.75.18.17.41.33.68.5.57.3,1.14.59,1.71.85.57.27,1.12.54,1.65.8,2.47,1.24,4.68,2.56,6.62,3.96,1.94,1.4,3.88,3.11,5.82,5.12.67.74,1.35,1.68,2.03,2.83.69,1.15,1.03,2.23,1.03,3.24Z"/><path class="cls-1" d="M90.19,22.42c0,2.17-.41,4.26-1.23,6.25-.82,1.99-1.91,3.77-3.29,5.34-1.54,1.77-3.26,3.13-5.17,4.06-1.91.94-4.06,1.4-6.47,1.4s-4.56-.5-6.37-1.51c-1.81-1-3.13-2.46-3.96-4.36-.67-1.54-1-3.29-1-5.27,0-.94.05-1.88.15-2.83s.22-1.9.35-2.83c0-.07,0-.15.02-.25.02-.1.03-.17.03-.2.07-.33.09-.58.08-.73-.02-.15-.11-.23-.28-.23-.54,0-1,.1-1.4.3-.4.2-.77.39-1.1.55-.37.2-.84.6-1.43,1.2-.59.6-1.19,1.29-1.81,2.06-.62.77-1.21,1.55-1.78,2.36-.23.47-.54,1.06-.93,1.78-.38.72-.77,1.45-1.15,2.18-.38.74-.71,1.38-.98,1.93-.27.55-.44.9-.5,1.03-.2.64-.47,1.05-.8,1.25-.33.2-.72.3-1.15.3-.33,0-.73-.17-1.18-.53-.45-.35-.85-.83-1.18-1.43-.33-.57-.53-1.1-.58-1.61-.05-.5-.06-.92-.02-1.25,0-.3.09-.62.28-.95.18-.33.38-.6.58-.8.63-.6,1.16-1.09,1.58-1.48.42-.38.79-.78,1.1-1.18.32-.4.64-.92.98-1.56l5.07-9.48c.9-1.71,1.86-3.44,2.86-5.19s1.96-3.49,2.86-5.19c.5-.9,1-1.82,1.51-2.76.5-.94.97-1.87,1.4-2.81.9.23,1.83.47,2.78.7.95.23,1.88.5,2.78.8.17.03.35.1.55.2s.3.27.3.5c0,.17-.06.33-.18.5-.12.17-.21.32-.28.45-.54.77-1.1,1.52-1.68,2.26-.59.74-1.16,1.49-1.73,2.26-1.67,2.24-3.37,4.52-5.09,6.82-1.72,2.31-3.32,4.65-4.79,7.02.57-.4,1.32-.82,2.26-1.25.94-.43,1.91-.79,2.91-1.08,1-.28,1.86-.43,2.56-.43.47,0,.8.08,1,.25.2.17.25.5.15,1-.17.94-.33,2.02-.5,3.26-.17,1-.25,1.89-.25,2.66v1.36c.17,2.14.97,3.9,2.41,5.29,1.44,1.39,3.23,2.08,5.37,2.08,1.94,0,3.82-.41,5.64-1.23,1.82-.82,3.37-1.85,4.64-3.09,1.57-1.54,2.69-3.38,3.36-5.52-.84,0-1.65-.23-2.43-.7-.79-.47-1.16-1.19-1.13-2.16.03-.77.38-1.43,1.05-1.98.67-.55,1.4-.83,2.21-.83.84.03,1.55.39,2.13,1.08.59.69.88,1.41.88,2.18Z"/><path class="cls-1" d="M137.44,6.52c0,.84-.29,1.52-.88,2.06s-1.3.8-2.13.8h-13.54v6.12h6.32c.03-.87.32-1.67.85-2.41.53-.73,1.27-1.1,2.21-1.1.87,0,1.66.27,2.38.8s1.08,1.29,1.08,2.26-.33,1.62-.98,2.06c-.65.44-1.41.65-2.28.65h-9.58v6.92c1.37.13,2.8.46,4.29.98,1.49.52,2.82,1.11,3.99,1.78.57.3,1.19.7,1.86,1.2.67.5,1.3,1.04,1.91,1.61.6.57,1.04,1.14,1.3,1.71.27.44.43.85.48,1.25.05.4.08.85.08,1.35,0,.74-.33,1.35-1,1.83-.67.48-1.34.73-2.01.73-.57,0-1.14-.21-1.71-.63-.57-.42-.85-.94-.85-1.58,0-.67.19-1.25.58-1.73.38-.48.91-.78,1.58-.88-.97-.87-2.08-1.66-3.34-2.38-1.25-.72-2.5-1.3-3.74-1.73-.54-.2-1.1-.35-1.68-.45-.59-.1-1.16-.22-1.73-.35v3.06c0,2.88-.81,5-2.43,6.37-1.62,1.37-3.82,2.06-6.6,2.06-1,0-2.05-.13-3.14-.4-1.09-.27-2.11-.67-3.06-1.2s-1.72-1.24-2.31-2.11c-.59-.87-.88-1.91-.88-3.11,0-1.27.33-2.37.98-3.29.65-.92,1.5-1.67,2.56-2.26,1.05-.58,2.17-1.03,3.36-1.33,1.19-.3,2.3-.45,3.34-.45h1.05v2.26h-1.3c-.8,0-1.65.2-2.53.6-.89.4-1.63.95-2.23,1.63s-.9,1.48-.9,2.38c0,1.4.43,2.5,1.3,3.29.87.79,1.97,1.18,3.31,1.18,1.14,0,1.99-.25,2.56-.75.57-.5.94-1.16,1.13-1.98.18-.82.28-1.7.28-2.63v-12.94h-11.59v-2.26h11.59v-6.12h-15.85v-2.26h15.75l-.05-6.82h5.67v6.82h10.28c.03-.9.33-1.7.9-2.38.57-.69,1.32-1.03,2.26-1.03.77,0,1.48.28,2.13.83s.98,1.21.98,1.98Z"/><path class="cls-1" d="M180.26,5.57c-.33,1.67-.82,3.32-1.45,4.94-.64,1.62-1.29,3.22-1.96,4.79-.84,1.91-1.76,3.75-2.78,5.54-1.02,1.79-2.17,3.52-3.44,5.19-1.84,2.44-3.88,4.49-6.12,6.15s-4.78,3.09-7.62,4.29c-.87.33-1.87.66-2.98.98-1.12.32-2.17.48-3.14.48-.84,0-1.65-.23-2.46-.7-.8-.47-1.2-1.19-1.2-2.16s.29-1.75.88-2.33,1.35-.88,2.28-.88c1.04,0,1.86.36,2.46,1.08.6.72.87,1.56.8,2.53,1.2-.47,2.41-1.2,3.61-2.18,1.2-.99,2.24-1.93,3.11-2.83,2.44-2.54,4.52-5.28,6.24-8.23s3.18-6.02,4.37-9.23c1.19-3.21,2.22-6.49,3.08-9.83l6.32,2.41Z"/><path class="cls-1" d="M273.31,18.96c0,.77-.35,1.41-1.05,1.93-.7.52-1.42.78-2.16.78-3.08,0-5.95-.25-8.63-.75-2.68-.5-5.45-1.27-8.33-2.31v20.32h-5.92V1.56h5.92v11.14c1.04,1,2.38,1.96,4.04,2.86,1.65.9,3.38,1.7,5.17,2.38s3.37,1.23,4.74,1.63c-.03-.1-.06-.2-.08-.3-.02-.1-.03-.2-.03-.3,0-.84.35-1.55,1.05-2.13.7-.58,1.44-.88,2.21-.88s1.47.31,2.11.93c.63.62.95,1.31.95,2.08Z"/><path class="cls-1" d="M233.2,17.14c.14-.33.22-.66.22-.98,0-.03,0-.05,0-.08,0-.03,0-.05,0-.07,0-1.72-1.39-3.11-3.11-3.11s-3.11,1.39-3.11,3.11c0,.97.45,1.83,1.15,2.4-.2.06-.42.1-.65.14-.9.15-1.71.23-2.41.23-1.54,0-3.07-.15-4.59-.45s-3.03-.6-4.54-.9c-1.84-.37-3.71-.72-5.62-1.05-1.91-.33-3.81-.5-5.72-.5-2.44,0-4.86.12-7.25.35-.74.07-1.49.15-2.23.24-2.79.32-4.86,2.73-4.72,5.53,1.97-.33,3.95-.62,5.94-.85,1.99-.23,3.99-.35,5.99-.35,1.07,0,2.16.04,3.26.13,1.1.08,2.19.24,3.26.48,1.74.37,3.48.69,5.22.98,1.74.28,3.49.43,5.27.43,2.04,0,4.1-.29,6.2-.88,2.09-.58,3.97-1.46,5.64-2.63.37-.26.72-.62,1.07-1.04.22-.21.39-.46.54-.73.02-.04.04-.08.07-.12.04-.08.08-.16.11-.24Z"/></g></svg>