<?xml version="1.0" encoding="UTF-8"?><svg id="_レイヤー_2" xmlns="http://www.w3.org/2000/svg" viewBox="0 0 478.69 144.49"><defs><style>.cls-1{fill:#2c5e3d;}</style></defs><g id="_レイヤー_1-2"><path class="cls-1" d="M124.92,52.25c-.34-.52-.91-.85-1.53-.89-.42-.03-.85-.15-1.24-.38-.39-.23-.71-.54-.94-.89-.34-.52-.91-.85-1.53-.89-.42-.03-.85-.15-1.24-.38-.41-.24-.73-.56-.97-.93l-.04,8.96c0,1,1.08,1.64,1.95,1.14l7.78-4.45c-.44-.03-.88-.15-1.29-.39-.39-.23-.71-.54-.94-.89Z"/><path class="cls-1" d="M143.98,23.38l-8.56-4.99c-1.82-1.06-4.13-.41-5.02,1.43l-11.38,23.53c-.04.07-.05.15-.08.23.56-.19,1.17-.22,1.74-.05.68.2,1.2.6,1.56,1.1.38.54.94.93,1.59.97.42.03.85.15,1.24.38.39.23.71.54.94.89.36.55.98.84,1.63.91.61.06,1.22.32,1.73.81.43.42.7.96.81,1.54.05-.06.11-.12.16-.18l14.88-21.49c1.16-1.67.59-4.01-1.23-5.07Z"/><path class="cls-1" d="M43.11,51.36c6.66-6,14.45-20.29,26.44-20.29s18.28,14.19,34.93,24.31h0c-7.03,3.55-20.89,3.02-38.95-2.75-11.94-3.82-22.42-1.27-22.42-1.27Z"/><path class="cls-1" d="M80.06,0l2.13,7.51c.49,1.73,1.79,3.11,3.49,3.7l6.56,2.28-6.56,2.28c-1.7.59-3,1.97-3.49,3.7l-2.13,7.51-2.13-7.51c-.49-1.73-1.79-3.11-3.49-3.7l-6.56-2.28,6.56-2.28c1.7-.59,3-1.97,3.49-3.7l2.13-7.51Z"/><path class="cls-1" d="M44.3,56c-.42-.15-.84-.28-1.27-.4-.1-.03-.14.03-.16.07-.02.04-.03.11.05.16,1.29.85,2.28,1.9,3.01,3.2.56.98.62,1.96.18,2.91-.96,2.09-4.27,3.6-6.94,4.11-2.28.44-4.66.69-6.87.74-2.22-.04-4.6-.3-6.88-.74-2.67-.51-5.98-2.02-6.94-4.11-.44-.95-.38-1.93.18-2.91.74-1.3,1.72-2.35,3.01-3.2.08-.05.07-.13.05-.16-.01-.03-.05-.08-.11-.08-.01,0-.03,0-.04,0-.43.11-.86.25-1.27.39-2.53.83-4.44,2.57-4.99,4.56-.43,1.56-.02,3.13,1.2,4.56.21.27.41.48.62.67,2.64,2.28,6.19,3.55,11.17,4l.46.04c.18.01.36.03.54.04l1.31.07c.56.02,1.12.04,1.67.06.57-.01,1.13-.03,1.69-.06l1.31-.07c.18-.01.36-.03.54-.04l.46-.04c4.98-.45,8.52-1.72,11.17-4,.16-.14.31-.3.48-.51,1.32-1.46,1.78-3.06,1.36-4.66-.53-2.01-2.45-3.77-5-4.61Z"/><path class="cls-1" d="M27.22,54.54s-.55-.93-.72-1.43c-.55-1.4-.23-3.07.87-4.56l.52-.71-.79.34c-1.77.76-2.89,2.95-2.54,4.99.1.61.4,1.34.65,1.84.15.31.32.6.49.89l.1.17c1.09,1.84.94,3.88-.4,5.61l-.6.78.87-.41c1.21-.57,2.07-1.6,2.41-2.89.39-1.5.06-3.23-.87-4.62Z"/><path class="cls-1" d="M32.81,53.64s-.6-1.01-.77-1.56c-.59-1.52-.22-3.36.99-4.94l.58-.75-.84.38c-1.9.85-3.05,3.15-2.66,5.34.04.21.09.45.16.69.16.55.39,1.09.72,1.67.09.16.16.28.19.34,1.45,2.11,1.37,4.48-.22,6.48l-.67.84.94-.47c1.31-.66,2.19-1.74,2.54-3.13.4-1.59.05-3.37-.96-4.89Z"/><path class="cls-1" d="M38.85,53.36l-.07-.12c-.19-.33-.37-.65-.52-.99-.32-.71-.86-2.04-.84-2.89.02-1.19.52-2.45,1.46-3.67l.61-.78-.88.41c-.65.31-1.26.82-1.81,1.52-1.03,1.32-1.37,3.26-.89,4.94.23.98,1.02,2.28,1.03,2.3,1.61,2.34,1.49,5.03-.31,7.2l-.76.91,1.03-.54c1.36-.71,2.28-1.85,2.68-3.27.44-1.58.17-3.41-.74-5.02Z"/><path class="cls-1" d="M86.11,24.11l.92,3.01c.25.82.84,1.49,1.62,1.84l2.32,1.04-2.32,1.04c-.78.35-1.37,1.02-1.62,1.84l-.92,3.01-.92-3.01c-.25-.82-.84-1.49-1.62-1.84l-2.32-1.04,2.32-1.04c.78-.35,1.37-1.02,1.62-1.84l.92-3.01Z"/><path class="cls-1" d="M95.88,84.93c-.41.24-2.24.28-4.15.65,1.48-2.45,1.55-5.04,1.55-5.04-.3.51-2.61,1.71-4.32,3.41-.6-1.81-1.46-3.37-1.45-3.84,0,0-1.3,2.2-1.31,5.01-1.1-.66-2.05-1.12-2.25-1.38,0,0,.42,1.87,1.72,3.73-.21.14-.6.33-.9.39.71.71,1.84,1.29,2.55,1.45-1.26,1.44-2.04,1.61-2.04,1.61,0,0,.41.09.66.22.21.11.5.02.67-.13.56-.51.96-.98,1.25-1.42.8,1.01,2.09,1.22,2.75,1.47-.13-.24-.28-.75-.3-1.07,2.13.07,3.78-.55,3.78-.55-.3-.03-1.04-.49-2-1.01,2.46-1.4,3.76-3.54,3.76-3.54Z"/><circle class="cls-1" cx="113.61" cy="105.86" r="1.61"/><path class="cls-1" d="M123.84,109.15c-.24-.15-.5-.34-.78-.56-1.59-1.27-2.19-2.14-2.8-4.06-3.37-10.64-11.76-10.15-11.84-10.15-2.21.03-1.85.79-.78.91,0,0,2.22.11,4.76,1.57-.69-.06-1.31.08-1.64.51-.7.92.17,2.75,1.41,3.69,1.23.94,3.24,1.3,3.94.38.21-.28.28-.64.23-1.04.91,1.23,1.72,2.75,2.32,4.65.08.25.16.49.25.72,0,0,0,0,0,0,.59,3.37-.89,5.72-2.84,5.93,0,0-.01,0-.02,0-4.39-1.33-9.18-1.27-12.54,2.16,4.41-1.69,8.85-1.27,13.36-.35,1,.18,2.02.37,3.06.49,4.64.8,17.31,4.58,20.46,2.66,2.67-1.62-9.01-3.89-16.53-7.52Z"/><path class="cls-1" d="M102.71,15.62l-2.02,3.79c-.55,1.03-.63,2.25-.21,3.34l1.23,3.24-3.24-1.23c-1.09-.42-2.31-.34-3.34.21l-3.79,2.02,2.02-3.79c.55-1.03.63-2.25.21-3.34l-1.23-3.24,3.24,1.23c1.09.42,2.31.34,3.34-.21l3.79-2.02Z"/><path class="cls-1" d="M73.21,18.29l-1.91,3.59c-.52.98-.59,2.13-.2,3.16l1.17,3.07-3.07-1.17c-1.03-.39-2.19-.32-3.16.2l-3.59,1.91,1.91-3.59c.52-.98.59-2.13.2-3.16l-1.17-3.07,3.07,1.17c1.03.39,2.19.32,3.16-.2l3.59-1.91Z"/><path class="cls-1" d="M105.47,71.89s-1.72,13.03-9.62,16.56c1.67,1.57,6.94,2.81,11.12.99,3.35-8.39,3.27-17.69,3.27-17.69l-4.77.15Z"/><path class="cls-1" d="M110.67,63.64c-.24-.04-.46-.07-.69-.1l.44-1.87c.12-.5-.25-.98-.76-1.01l-.71-.03c-.47-.02-.86.35-.86.81v1.97c-8.64.09-10.38,9.36-6.17,12.31,0,0-2.4-7.57,6.42-7.14,7.88.39,5.38,8.12,3.16,8.7,7.28-.73,7.41-12.19-.83-13.65Z"/><path class="cls-1" d="M89.98,72.35c4.44-2.28,4.9-9.14,4.9-9.14-.54.57-3.71,3.05-6.53,4.48.15-4.03-.95-8.19-.68-9.14,0,0-3.02,3.15-4.32,7.79-1.65-2.7-3.62-4.9-3.78-5.67,0,0-1.13,4.08-.09,8.64-1.67-.52-3.03-.85-3.4-1.17,0,0,1.08,2.69,3.5,5.12-.4.35-1.17.79-1.6.91,1.03.48,2.7,1.77,4.78,1.52-.19.86-.32,1.89-.31,3.14,0,.39.21.83.58.95.43.13.99.51.99.51,0,0-.65-1.12-.32-4.31.98.64,2.93,1.29,4.55,1.29-.26-.42-.46-1.11-.52-1.52,3.66-.67,7.14-2.97,7.14-2.97-.52.07-2.9.09-4.9-.44Z"/><circle class="cls-1" cx="92.54" cy="103.88" r="1.54"/><path class="cls-1" d="M102.3,106.8s-.6-.8-1.18-1.37c.75-.33,1.59-.87,1.59-.87-4-5.08-7.88-.27-7.88-.27,0,0,0,0,.01,0,0,0-.01,0-.01,0,0,0,1.95,5.86,7.48,2.51Z"/><path class="cls-1" d="M92.77,114.07s.58-.82.93-1.55c.54.61,1.31,1.24,1.31,1.24,3.59-5.38-2.18-7.58-2.18-7.58,0,0,0,0,0,.01,0,0,0-.01,0-.01,0,0-4.97,3.67-.07,7.89Z"/><path class="cls-1" d="M82.91,107.26s.96.3,1.76.41c-.41.7-.78,1.63-.78,1.63,6.22,1.75,6.54-4.41,6.54-4.41,0,0,0,0-.01,0,0,0,.01,0,.01,0,0,0-5.02-3.59-7.52,2.37Z"/><path class="cls-1" d="M86.34,95.78s.01,1,.15,1.8c-.8-.17-1.79-.23-1.79-.23.26,6.46,6.22,4.86,6.22,4.86,0,0,0,0,0-.01,0,0,0,0,0,0,0,0,1.86-5.89-4.58-6.42Z"/><path class="cls-1" d="M98.33,95.49s-.95.32-1.67.7c-.08-.81-.33-1.78-.33-1.78-6.06,2.24-2.7,7.41-2.7,7.41,0,0,0,0,0-.01,0,0,0,.01,0,.01,0,0,6.17-.05,4.69-6.34Z"/><path class="cls-1" d="M71.47,67.58l.52-.7c.74-1.01.48-2.44-.58-3.12l-1.98-1.28.62-.91c.15-.22.09-.51-.13-.66l-.88-.59c-.22-.15-.51-.09-.66.13l-.64.95-10.36-6.7c-.15-.1-.32-.17-.49-.2-.75-.13-2.79-.13-4.37,2.99-1.47,2.9-.38,4.87.22,5.64.18.23.43.4.71.48l9.84,2.79-4.24,7.51c.83-.26,1.74-.46,2.74-.61l2.18-3.87.24,3.64c.4-.02.8-.03,1.22-.03h.08c.27,0,.53,0,.79.02l-.26-3.84,2.64,4.01c1.04.13,2,.32,2.87.57l-4.09-6.22,2.21.63c.67.19,1.38-.06,1.79-.62ZM57.24,60.32c-.83,1.77-2.23,2.73-3.12,2.13s-.95-2.52-.13-4.29c.83-1.77,2.23-2.73,3.12-2.13.9.6.95,2.52.13,4.29Z"/><path class="cls-1" d="M80.76,96.36c0-1.43-.38-2.95-1.04-4.45-2.49-5.63-.83-15.48-14.25-15.49h0s0,0,0,0c0,0,0,0,0,0h0c-13.42,0-11.75,9.85-14.25,15.49-.65,1.47-1.02,2.97-1.04,4.38,0,.04,0,.07,0,.11,0,.03,0,.06,0,.09,0,.11,0,.23.01.34,0,.04,0,.08,0,.12.08,1.1.4,2.13,1,3.04,2.21,3.74,7.76,6.4,14.27,6.4s12.03-2.64,14.25-6.36c.71-1.05,1.03-2.28,1.04-3.58,0-.01,0-.02,0-.03,0-.01,0-.02,0-.04ZM68.78,95.62c-1.42-2.22.49-.49,2.16-.89s3.26.43,3.25,1.89c-.01,1.62-3.99,1.22-5.41-1ZM64.95,92.31c-5.92,0-8.77-1.82-8.52-5.51.26-3.82,3.78-6.88,8.81-6.88,6.81,0,9.08,2.96,9.87,7.06s-4.25,5.33-10.17,5.33Z"/><path class="cls-1" d="M69.1,85.18c-1.55,0-2.81,1.26-2.81,2.81s1.26,2.81,2.81,2.81,2.81-1.26,2.81-2.81-1.26-2.81-2.81-2.81Z"/><path class="cls-1" d="M67,84.37c1.66.5,3.82-1.21,3.13-2.08-.62-.79-1.78-.46-2.44.56s-2.36,1.02-.7,1.52Z"/><path class="cls-1" d="M70.84,109.58c-.64-.65-9.46.3-9.76.9l-2.53,5.1c-.45.91,2.25,2.92,2.25,2.92l8.95,3.67c.46.19.97.18,1.43,0l1.52-.64.54-3.52c.05-.24.56-1.09.71-1.28,0,0-1.24-5.22-3.12-7.14ZM71.15,116.71s-.41,2.48-.48,4.27c0,.11-.5.08-.89-.03-.28-.08-.49-.31-.53-.59l-.27-1.67c-.01-.07-.01-.13,0-.2l.16-1.38c.02-.2-.09-.39-.27-.47l-4.45-1.97c-.52-.23-.97-.58-1.33-1.02-.23-.29-.5-.64-.73-.96-.12-.18.08-.4.27-.29l2.22,1.23,4.34,1.73,1.59.38c.3.07.49.36.43.66l-.05.31ZM69.62,112.64c-.17-.37-1.06-1.34-1.06-1.34l-3.12-.33-.85-.36s4.51-.18,4.94.08,1.77,2.26,1.77,2.26c0,0-1.36,0-1.68-.31Z"/><path class="cls-1" d="M80.64,107.68s-.83.08-1.49.26c.14-.67.18-1.5.18-1.5-5.35.67-3.98,5.49-3.98,5.49,0,0,0,0,0,0,0,0,0,0,0,0,0,0,4.89,1.13,5.29-4.25Z"/><path class="cls-1" d="M22.96,107.75c-.03-.25-.05-.51-.04-.78,0,.28.01.53.04.78Z"/><path class="cls-1" d="M23.35,105.89c.17-.31.39-.65.64-1.02-.25.37-.47.72-.64,1.02Z"/><path class="cls-1" d="M24.7,110.77c-.13-.1-.26-.2-.38-.31.12.11.25.22.38.31Z"/><path class="cls-1" d="M27.49,84.07c.02.1.05.21.09.35-.03-.14-.06-.26-.09-.35Z"/><path class="cls-1" d="M27.63,84.64c.04.16.08.33.13.52-.05-.19-.09-.37-.13-.52Z"/><path class="cls-1" d="M27.93,85.79c.06.22.12.46.19.7-.07-.25-.13-.48-.19-.7Z"/><path class="cls-1" d="M25.8,111.37c-.14-.05-.28-.12-.42-.19.14.07.28.13.42.19Z"/><path class="cls-1" d="M23.13,108.57c-.06-.2-.11-.41-.14-.63.04.22.08.43.14.63Z"/><path class="cls-1" d="M23.76,109.84c-.1-.14-.2-.3-.29-.46.09.16.18.31.29.46Z"/><path class="cls-1" d="M25.26,111.13c-.16-.09-.33-.18-.48-.29.16.11.32.21.48.29Z"/><path class="cls-1" d="M24.21,110.36c-.14-.14-.27-.28-.4-.44.12.16.26.31.4.44Z"/><path class="cls-1" d="M26.42,111.57c-.17-.04-.34-.09-.51-.15.17.06.34.11.51.15Z"/><path class="cls-1" d="M26.95,111.66c-.14-.02-.28-.04-.42-.07.14.03.28.06.42.07Z"/><path class="cls-1" d="M23.4,109.24c-.1-.19-.18-.39-.25-.61.07.22.16.42.25.61Z"/><path class="cls-1" d="M27.51,111.7s.02,0,.04,0c-.15,0-.32,0-.48-.02.15.02.3.03.44.03Z"/><path class="cls-1" d="M29.4,90.54c-.13-.38-.26-.75-.38-1.12.12.37.25.75.38,1.12h0Z"/><path class="cls-1" d="M28.84,111.4c-.09.05-.18.1-.29.14.1-.04.2-.08.29-.14Z"/><path class="cls-1" d="M29.12,111.17c-.07.08-.14.14-.24.2.09-.06.17-.13.24-.2Z"/><path class="cls-1" d="M28.48,111.56c-.12.04-.25.07-.38.09.14-.02.26-.05.38-.09Z"/><path class="cls-1" d="M33.9,88.2c.34-.7.66-1.41.97-2.17-.3.76-.63,1.47-.97,2.17Z"/><path class="cls-1" d="M28.01,111.67c-.13.02-.26.03-.39.03.14,0,.27-.02.39-.03Z"/><path class="cls-1" d="M29.3,110.85c-.03.1-.08.18-.14.26.06-.08.11-.17.14-.26Z"/><path class="cls-1" d="M29.48,90.78c.11.31.22.61.34.92-.12-.31-.23-.61-.34-.92Z"/><path class="cls-1" d="M29.48,90.78c-.03-.08-.06-.16-.09-.25h0c.03.08.06.16.09.25Z"/><path class="cls-1" d="M32.61,87.98c.23-.46.45-.92.68-1.4-.14-1.33-.49-2.62-.7-4.15-1.47.94-2.36,3.55-2.85,5.54.37,1.15.8,2.37,1.28,3.52.48-1.25,1.04-2.39,1.59-3.51Z"/><path class="cls-1" d="M42.39,90.57c-1.05-.23-2.39.05-3.73.55-.18.54-.39,1.1-.67,1.67l-.39.82c-.51,1.06-1.06,2.22-1.65,3.49,3.37-1.62,5.85-3.48,6.44-6.54Z"/><path class="cls-1" d="M35.91,82.72c-.27,1.22-.63,2.31-1.04,3.32-.3.76-.63,1.47-.97,2.17-.19.41-.39.8-.59,1.2-.74,1.51-1.46,3.01-1.99,4.77-.06.19-.11.37-.16.56-.04-.08-.09-.17-.13-.25-.43-.86-.84-1.81-1.21-2.79-.12-.31-.23-.61-.34-.92-.03-.08-.06-.16-.09-.25-.13-.38-.26-.75-.38-1.12-.35-1.05-.65-2.06-.89-2.92-.07-.25-.13-.48-.19-.7-.06-.22-.11-.43-.16-.62-.05-.19-.09-.37-.13-.52-.02-.08-.04-.15-.06-.22-.03-.14-.06-.26-.09-.35-.05-.19-.07-.3-.07-.3,0,0-1.82.27-1.03,6.4.42,3.29.93,4.49,1.22,5.46.03.11.06.21.09.32.03.1.05.21.07.32.02.11.04.22.05.33.02.17.03.35.03.55,0,.2-.01.42-.03.67-.01.16-.03.34-.06.53-.03.22-.1.47-.19.73s-.22.54-.37.84c-.79,1.56-2.22,3.47-3.2,4.95-.25.37-.47.72-.64,1.02-.26.46-.42.83-.43,1.07,0,.28.01.53.04.78,0,.06.02.13.03.19.04.22.08.43.14.63,0,.02,0,.04.02.06.07.22.16.42.25.61.02.05.05.1.08.14.09.16.18.31.29.46.02.02.03.05.05.07.12.16.26.31.4.44.03.03.07.07.11.1.12.11.25.22.38.31.03.02.06.04.08.06.16.11.32.21.48.29.04.02.08.04.12.06.14.07.28.13.42.19.04.01.07.03.11.04.17.06.34.11.51.15.04,0,.07.01.11.02.14.03.28.06.42.07.04,0,.08.01.12.02.16.02.32.03.48.02.02,0,.05,0,.07,0,.14,0,.27-.02.39-.03.03,0,.06,0,.08-.01.14-.02.26-.05.38-.09.03,0,.05-.02.07-.03.1-.04.2-.08.29-.14.01,0,.03-.01.04-.02.09-.06.17-.13.24-.2.02-.02.03-.04.04-.05.06-.08.11-.17.14-.26,1.65-5.37,3.43-9.71,5.02-13.23.9-1.98,1.73-3.71,2.45-5.21.14-.29.26-.57.37-.85,1.9-4.79-.15-7.84-1.23-8.84Z"/><path class="cls-1" d="M27.62,111.7s-.05,0-.07,0c.02,0,.05,0,.07,0Z"/><path class="cls-1" d="M24.78,110.83s-.06-.04-.08-.06c.03.02.06.04.08.06Z"/><path class="cls-1" d="M28.55,111.53s-.05.02-.07.03c.03,0,.05-.02.07-.03Z"/><path class="cls-1" d="M29.16,111.11s-.03.04-.04.05c.02-.02.03-.04.04-.05Z"/><path class="cls-1" d="M28.88,111.37s-.03.02-.04.02c.01,0,.03-.01.04-.02Z"/><path class="cls-1" d="M28.09,111.66s-.06,0-.08.01c.03,0,.06,0,.08-.01Z"/><path class="cls-1" d="M22.99,107.94c0-.06-.02-.13-.03-.19,0,.06.02.13.03.19Z"/><path class="cls-1" d="M23.81,109.91s-.03-.05-.05-.07c.02.02.03.05.05.07Z"/><path class="cls-1" d="M25.91,111.41s-.07-.03-.11-.04c.04.01.07.03.11.04Z"/><path class="cls-1" d="M24.32,110.46s-.07-.06-.11-.1c.03.03.07.07.11.1Z"/><path class="cls-1" d="M25.38,111.18s-.08-.04-.12-.06c.04.02.08.04.12.06Z"/><path class="cls-1" d="M27.07,111.68s-.08-.01-.12-.02c.04,0,.08.01.12.02Z"/><path class="cls-1" d="M23.15,108.63s0-.04-.02-.06c0,.02,0,.04.02.06Z"/><path class="cls-1" d="M23.47,109.38s-.05-.09-.08-.14c.02.05.05.1.08.14Z"/><path class="cls-1" d="M26.53,111.59s-.07-.01-.11-.02c.04,0,.07.01.11.02Z"/><path class="cls-1" d="M52.83,76.59s-1.9-1.86-4.14-2.13c.18-1.67-.56-3.47-1.63-4.63,0,0-2.64,1.02-3.77,3.07-1.42-.99-3.45-1.17-5.02-.71,0,0-.22,2.34.75,4.21-1.36.54-2.53,1.67-3.17,2.88,0,0,2.04,2.38,4.52,2.57-.09,1.59.62,3.27,1.63,4.37,0,0,2.37-.9,3.59-2.74,1.42.96,3.42,1.12,4.97.67,0,0,.23-2.45-.81-4.34,1.39-.63,2.54-1.91,3.09-3.23ZM47.75,78.05l-.09.25.05.26c.07.39-.07.79-.37,1.05l-.2.17-.09.25c-.13.38-.46.65-.85.73l-.26.05-.2.17c-.3.26-.72.34-1.1.2l-.25-.09-.26.05c-.39.07-.79-.07-1.05-.37l-.17-.2-.25-.09c-.38-.13-.65-.46-.73-.85l-.05-.26-.17-.2c-.26-.3-.34-.72-.2-1.1l.09-.25-.05-.26c-.07-.39.07-.79.37-1.05l.2-.17.09-.25c.13-.38.46-.65.85-.73l.26-.05.2-.17c.3-.26.72-.34,1.1-.2l.25.09.26-.05c.39-.07.79.07,1.05.37l.17.2.25.09c.38.13.65.46.73.85l.05.26.17.2c.26.3.34.72.2,1.1Z"/><path class="cls-1" d="M43.67,76.94c-.62.53-.69,1.45-.17,2.07.53.62,1.45.69,2.07.17.62-.53.69-1.45.17-2.07s-1.45-.69-2.07-.17Z"/><path class="cls-1" d="M101.93,29.33c-1.82,1.89-11.05,9-11.05,10.96.36.46,1.56,1.74,3.12,3.28,0,0,0-.01,0-.02.21-1.38,2.09-4.95,2.09-4.95,0,0,1.5,1.22,3.96,2.69-.47,1.26-.37,5.91-.31,7.62,2.17,1.85,4.06,3.2,4.75,3.02,1.84-.5-1.12-21.95-2.56-22.6Z"/><path class="cls-1" d="M112.94,41.89s-.44-1.27-1.07-2.98c-1.05-2.89-2.65-7.11-3.67-9.07-1.44-1.13-3.74-.46-4.85-.51,1.67,2.44,4.77,20.59,3.96,22.46,1.33-1.03,3.83-5.08,5.36-7.79.36-.64.51-1.4.27-2.11Z"/><path class="cls-1" d="M10.44,74.97c-.24-.25-.51-.45-.74-.61-1.42-.95-1.53-2.41-1.52-2.93-1.94.18-3.74.95-5.12,2.22-.99.9-1.72,2.04-2.15,3.28-.03.09-.07.18-.1.27l-.04.1c-.65,1.06-1.14,2.44-.38,4.41.14-.23.28-.42.4-.55.71-.93,1.52-1.7,2.45-2.41.16-.12.39-.09.51.07.1.14.09.33-.02.45-.98,1.28-2.1,3.16-1.99,4.77.41.55.88,1.13,1.47,1.75,1.54,1.63,3.66,2.59,5.89,2.68-.46-2.18.36-3.54.93-4.49.38-.64.58-.98.46-1.3-.62-1.64-.48-3.09.48-5.01.58-1.16.1-2.09-.52-2.72Z"/><path class="cls-1" d="M23.41,77.47l-.04-.09c-.45-1.47-1.28-2.85-2.4-4.01-.23-.24-.47-.46-.72-.67-3.1-2.65-7.41-3.28-10.46-1.45,0,.04.02.09.01.13,0,.06-.11,1.27,1,2.02.57.38,1.01.81,1.34,1.27.78,1.08.92,2.33.31,3.55-.82,1.63-.94,2.74-.43,4.07.32.86-.12,1.6-.55,2.32-.59.98-1.25,2.09-.69,4.05,1.84.5,3.71.56,5.45.23.6-.82,1.09-1.74,1.5-2.54,1.2-2.23.87-4.6.34-7.02-.39-1.58-.91-3.23-1.94-4.43-.27-.26.15-.68.41-.4,1.27,1.3,1.88,2.97,2.41,4.6.77,2.48,1.23,5.39.09,7.81-.19.44-.39.89-.6,1.33,1.98-.82,3.66-2.2,4.73-4.05,1.39-2.41,1.48-4.67.26-6.71Z"/><path class="cls-1" d="M2.04,72.58c1.7-1.55,3.95-2.43,6.35-2.48,2.11-1.29,4.78-1.51,7.31-.77-1.3-1.17-2.6-2.58-3.27-4.02-2.37-5.17-12.93,1.25-12.22,9.64.47-.88,1.09-1.68,1.83-2.36Z"/><path class="cls-1" d="M32.11,140.92c.05.75.08,1.81-.04,2.92h3.43c-.19-2.49-.34-4.89-.44-6.34-1.27,1.25-2.24,2.43-2.95,3.42Z"/><path class="cls-1" d="M40.68,117.16c.03,1.11.07,2.41.14,3.82.89-.06,1.78-.1,2.67-.12v10.65c-.62.32-1.22.64-1.79.97.39,3.35.93,6.54,1.66,9.01,5.3-8.66,14.29-12.53,20.28-14.22v-4.38c-7.11-3.51-15.03-5.3-22.97-5.76ZM45.23,130.69v-9.83c.2,0,.41,0,.61,0,.86.01,1.72.04,2.57.09v8.45c-1.13.41-2.19.84-3.19,1.29ZM50.16,121.07c1,.08,2,.19,3,.32v6.56c-1.05.26-2.04.55-3,.85v-7.73ZM54.91,121.65c.91.15,1.82.32,2.72.51v4.85c-.94.16-1.84.33-2.72.53v-5.89ZM61.9,126.45c-.86.09-1.71.19-2.53.3v-4.18c.85.21,1.69.44,2.53.7v3.18Z"/><path class="cls-1" d="M41.87,143.84c-.91-2.82-1.55-6.44-1.99-10.21-.5-4.3-.75-8.79-.87-12.49-.05-1.51-.08-2.88-.09-4.06-.02-1.81-.02-3.17-.01-3.81-.58.15-1.71.42-3.16.55v3.07c-.87.05-1.91.06-2.84.02v-3.04c-1.03-.06-2.11-.21-3.22-.51,0,2.8-.19,19.08-4.36,31.12h4.52c.81-2.48,1.41-6.5,1.83-10.64.11,0,.21-.01.32-.02.11,0,.21-.01.32-.02,1.19-.05,2.34-.01,3.28.05.11,0,.21.01.31.02.11,0,.22.02.32.02.06.81.13,1.6.19,2.34.31,3.55.66,6.26.84,7.59.04.27.07.49.09.65h4.73c-.07-.21-.15-.43-.22-.65ZM32.64,119.7c.09,0,.18,0,.26-.01.02,0,.03,0,.05,0,.1,0,.21,0,.31,0,.66-.01,1.3,0,1.86.04.11,0,.21.01.31.02.11,0,.21.01.31.02v.52c0,.06,0,.11,0,.17,0,1.02,0,2.03,0,3.04-.1,0-.21.01-.31.02-.1,0-.2,0-.31.01-.66.02-1.37.02-2.04,0-.11,0-.21,0-.31-.01-.11,0-.21-.01-.31-.02.09-1.6.14-2.91.18-3.79ZM32.3,126.32c.11,0,.21-.01.32-.01.11,0,.21-.01.32-.01.81-.03,1.59,0,2.26.03.11,0,.21.01.31.02.11,0,.21.01.31.02.05,1.41.11,2.79.19,4.11-.1,0-.21.01-.31.02-.1,0-.2.01-.31.02-.88.04-1.85.03-2.75,0-.11,0-.21,0-.32-.01-.11,0-.21-.01-.31-.02.12-1.44.22-2.85.31-4.17Z"/><path class="cls-1" d="M56.03,111.23c-.57-2.91-3.44-3.88-5.54-3.67.19.76.19,1.57.12,2.39-.02.26-.05.51-.08.77.08.05.17.11.25.21.43.44,1.11.44,1.48-.12.09-.13.26-.16.38-.06.24.25-.08.67-.25.93-.47.62-1.31.75-2.05.55-.03.27-.05.54-.06.81-.01.49,0,.96.19,1.41.08.2.2.39.37.57,1.4.99,3.4.65,4.52-.81.47-.62.7-1.33.72-2.03.04-.27.03-.58-.04-.93Z"/><path class="cls-1" d="M48.51,104.34c-.67-.58-1.49-.88-2.33-.92.31,1.41.08,3.06-.04,4.36-.07.68-.19,1.41-.25,2.13-.05.56-.05,1.11.04,1.63.02.09.03.19.06.28.17.47.44.91.84,1.25.64.55,1.97,1.09,2.8.93-.77-1.42-.21-3.79.07-5.76.03-.21.06-.41.08-.61.01-.13.02-.25.03-.37,0-1.1-.44-2.16-1.3-2.92Z"/><path class="cls-1" d="M45.16,102.07c-.24-.63-.58-1.23-1.01-1.78-1.85-2.38-5.69-1.91-7.38.29-2.11,2.75-1.35,6.06.83,7.32,1.19.69,2.08,1.02,3.35.87-.49-1.14-.03-2.55-.16-3.69-.05-.38-.13-.92-.31-.96,0,0,0,0,0,0-.08-.03-.18-.03-.23-.02,0,0-.02,0-.02,0,0,0,0,0,0,0h0c-.18.04-.42.34-.34.58.03.15.15.32.32.49.05.05.02.13-.04.14-1.64.27-1.81-2.21-.31-2.68.6-.21,1.21-.06,1.65.35.59.55.5,1.52.49,2.07-.03.74-.12,1.42-.16,2.1,0,.15-.02.3-.02.45,0,.27,0,.53.04.8.02.1.03.19.06.28.18.75.58,1.44,1.19,1.97.54.48,1.19.76,1.86.87-.03-.12-.07-.23-.09-.35-.34-1.73-.05-3.4.19-5.06.09-.59.17-1.18.22-1.77.02-.29.04-.57.04-.86,0-.48-.03-.95-.16-1.41Z"/><path class="cls-1" d="M183.34,62.65s8.4-1.68,8.66,1.8l.66,8.9s-.23-1.24-7.49-.82c-.61.04-1.13-.43-1.18-1.03-.19-2.59-.66-8.85-.66-8.85Z"/><path class="cls-1" d="M203.48,60.4s-8.61-1.07-8.3,3.06l.66,8.87h0c.03-.17.5-1.28,7.28-1.89.61-.05,1.06-.59,1.01-1.2-.19-2.59-.66-8.85-.66-8.85Z"/><path class="cls-1" d="M186.37,97.35c0,.87-.4,1.59-1.19,2.16-.79.57-1.58.86-2.37.86-.91,0-1.73-.25-2.46-.74-.73-.5-1.1-1.24-1.1-2.22,0-.47.19-1.05.56-1.72.38-.67.8-1.09,1.28-1.25-1.42-1.82-3.13-3.47-5.13-4.95-2-1.48-4.11-2.8-6.35-3.95-2.23-1.15-4.44-2.1-6.61-2.85-.95-.36-1.91-.66-2.88-.92-.97-.26-1.93-.54-2.88-.86-1.15-.43-1.72-1.25-1.72-2.43,0-.47.14-.99.42-1.54.08-.16.16-.29.24-.39.08-.1.18-.21.3-.33,1.62-1.86,3.23-3.77,4.83-5.72s3.15-3.92,4.66-5.9c1.03-1.26,2.04-2.56,3.03-3.88.99-1.32,1.86-2.7,2.61-4.12.24-.43.42-.89.53-1.36.12-.47.24-.95.36-1.42.12-.47.42-.71.89-.71.32,0,.78.16,1.39.47.61.32,1.25.71,1.93,1.19.67.47,1.29.94,1.87,1.39.57.45.98.8,1.22,1.04.2.2.36.41.47.62s.18.48.18.8c0,.28-.43.83-1.28,1.66-.85.83-1.94,1.83-3.26,3-1.33,1.17-2.73,2.39-4.21,3.68-1.48,1.29-2.89,2.53-4.21,3.74-1.33,1.21-2.41,2.28-3.26,3.23-.85.95-1.28,1.64-1.28,2.08,0,.4.11.69.33.89.22.2.48.4.8.59.67.36,1.34.69,2.02,1.01.67.32,1.32.63,1.96.95,2.93,1.46,5.54,3.02,7.83,4.69,2.29,1.66,4.59,3.68,6.88,6.05.79.87,1.59,1.99,2.4,3.35.81,1.36,1.22,2.64,1.22,3.83Z"/><path class="cls-1" d="M262.16,79.2c0,2.57-.48,5.03-1.45,7.39-.97,2.35-2.26,4.46-3.88,6.32-1.82,2.1-3.86,3.7-6.11,4.8-2.25,1.11-4.8,1.66-7.65,1.66s-5.4-.59-7.53-1.78c-2.14-1.19-3.7-2.91-4.69-5.16-.79-1.82-1.19-3.89-1.19-6.23,0-1.11.06-2.22.18-3.35s.26-2.24.42-3.35c0-.08,0-.18.03-.3.02-.12.03-.2.03-.24.08-.4.11-.68.09-.86-.02-.18-.13-.27-.33-.27-.63,0-1.19.12-1.66.36-.47.24-.91.46-1.3.65-.44.24-1,.71-1.69,1.42-.69.71-1.4,1.52-2.14,2.43-.73.91-1.43,1.84-2.11,2.79-.28.55-.64,1.26-1.1,2.11-.45.85-.91,1.71-1.36,2.58-.45.87-.84,1.63-1.16,2.28-.32.65-.51,1.06-.59,1.22-.24.75-.55,1.25-.95,1.48-.4.24-.85.36-1.36.36-.4,0-.86-.21-1.39-.62-.53-.41-1-.98-1.39-1.69-.4-.67-.62-1.31-.68-1.9-.06-.59-.07-1.09-.03-1.48,0-.36.11-.73.33-1.13.22-.4.44-.71.68-.95.75-.71,1.37-1.29,1.87-1.75.49-.45.93-.92,1.3-1.39.38-.47.76-1.09,1.16-1.84l5.99-11.21c1.07-2.02,2.19-4.06,3.38-6.14s2.31-4.12,3.38-6.14c.59-1.07,1.19-2.16,1.78-3.26.59-1.11,1.15-2.21,1.66-3.32,1.07.28,2.17.55,3.29.83,1.13.28,2.22.59,3.29.95.2.04.42.12.65.24s.36.32.36.59c0,.2-.07.4-.21.59-.14.2-.25.38-.33.53-.63.91-1.3,1.8-1.99,2.67-.69.87-1.37,1.76-2.05,2.67-1.98,2.65-3.98,5.34-6.02,8.07-2.04,2.73-3.92,5.5-5.66,8.3.67-.47,1.56-.97,2.67-1.48,1.11-.51,2.25-.94,3.44-1.28,1.19-.34,2.19-.5,3.02-.5.55,0,.95.1,1.19.3.24.2.3.59.18,1.19-.2,1.11-.4,2.39-.59,3.85-.2,1.19-.3,2.23-.3,3.14v1.6c.2,2.53,1.15,4.62,2.85,6.26,1.7,1.64,3.82,2.46,6.35,2.46,2.29,0,4.52-.48,6.67-1.45,2.15-.97,3.98-2.19,5.49-3.65,1.86-1.82,3.18-3.99,3.97-6.52-.99,0-1.95-.28-2.88-.83-.93-.55-1.37-1.4-1.33-2.55.04-.91.45-1.69,1.25-2.34.79-.65,1.66-.98,2.61-.98.99.04,1.83.47,2.52,1.28.69.81,1.04,1.67,1.04,2.58Z"/><path class="cls-1" d="M318.04,60.4c0,.99-.35,1.8-1.04,2.43s-1.53.95-2.52.95h-16.02v7.24h7.47c.04-1.03.38-1.98,1.01-2.85.63-.87,1.5-1.31,2.61-1.31,1.03,0,1.97.32,2.82.95s1.28,1.52,1.28,2.67-.39,1.92-1.16,2.43c-.77.51-1.67.77-2.7.77h-11.33v8.19c1.62.16,3.31.54,5.07,1.16,1.76.61,3.33,1.32,4.72,2.11.67.36,1.4.83,2.19,1.42.79.59,1.54,1.23,2.25,1.9.71.67,1.23,1.35,1.54,2.02.32.51.5,1.01.56,1.48.06.47.09,1.01.09,1.6,0,.87-.4,1.59-1.19,2.16-.79.57-1.58.86-2.37.86-.67,0-1.34-.25-2.02-.74-.67-.49-1.01-1.12-1.01-1.87,0-.79.23-1.47.68-2.05.45-.57,1.08-.92,1.87-1.04-1.15-1.03-2.46-1.97-3.94-2.82-1.48-.85-2.96-1.53-4.42-2.05-.63-.24-1.3-.41-1.99-.53-.69-.12-1.37-.26-2.05-.42v3.62c0,3.4-.96,5.91-2.88,7.53-1.92,1.62-4.52,2.43-7.8,2.43-1.19,0-2.42-.16-3.71-.47-1.29-.32-2.49-.79-3.62-1.42s-2.04-1.46-2.73-2.49c-.69-1.03-1.04-2.25-1.04-3.68,0-1.5.39-2.8,1.16-3.89.77-1.09,1.78-1.98,3.02-2.67,1.25-.69,2.57-1.22,3.97-1.57,1.4-.36,2.72-.53,3.94-.53h1.25v2.67h-1.54c-.95,0-1.95.24-3,.71-1.05.47-1.93,1.12-2.64,1.93s-1.07,1.75-1.07,2.82c0,1.66.51,2.96,1.54,3.89,1.03.93,2.33,1.39,3.91,1.39,1.34,0,2.35-.3,3.03-.89.67-.59,1.12-1.37,1.33-2.34.22-.97.33-2.01.33-3.11v-15.3h-13.7v-2.67h13.7v-7.24h-18.74v-2.67h18.63l-.06-8.07h6.7v8.07h12.16c.04-1.07.39-2.01,1.07-2.82.67-.81,1.56-1.22,2.67-1.22.91,0,1.75.33,2.52.98s1.16,1.43,1.16,2.34Z"/><path class="cls-1" d="M368.67,59.27c-.4,1.98-.97,3.92-1.72,5.84-.75,1.92-1.52,3.81-2.31,5.67-.99,2.25-2.09,4.44-3.29,6.55-1.21,2.12-2.56,4.16-4.06,6.14-2.18,2.89-4.59,5.31-7.24,7.27-2.65,1.96-5.66,3.65-9.02,5.07-1.03.4-2.21.78-3.53,1.16-1.33.38-2.56.56-3.71.56-.99,0-1.96-.28-2.91-.83-.95-.55-1.42-1.4-1.42-2.55s.35-2.07,1.04-2.76,1.59-1.04,2.7-1.04c1.22,0,2.19.43,2.91,1.28.71.85,1.03,1.85.95,3,1.42-.55,2.85-1.41,4.27-2.58,1.42-1.17,2.65-2.28,3.68-3.35,2.89-3.01,5.35-6.25,7.38-9.73,2.04-3.48,3.76-7.12,5.16-10.91,1.4-3.8,2.62-7.67,3.65-11.63l7.47,2.85Z"/><path class="cls-1" d="M478.69,75.11c0,.91-.41,1.67-1.25,2.28-.83.61-1.68.92-2.55.92-3.64,0-7.04-.3-10.2-.89-3.16-.59-6.45-1.5-9.85-2.73v24.02h-7v-44.19h7v13.17c1.23,1.19,2.82,2.31,4.78,3.38,1.96,1.07,3.99,2.01,6.11,2.82s3.98,1.45,5.61,1.93c-.04-.12-.07-.24-.09-.36-.02-.12-.03-.24-.03-.36,0-.99.41-1.83,1.25-2.52.83-.69,1.7-1.04,2.61-1.04s1.74.37,2.49,1.1c.75.73,1.13,1.55,1.13,2.46Z"/><path class="cls-1" d="M431.27,72.95c.17-.39.26-.78.26-1.16,0-.03,0-.06,0-.1,0-.03,0-.06,0-.09,0-2.03-1.65-3.68-3.68-3.68s-3.68,1.65-3.68,3.68c0,1.15.54,2.16,1.36,2.84-.24.07-.5.12-.76.16-1.07.18-2.02.27-2.85.27-1.82,0-3.63-.18-5.43-.53s-3.59-.71-5.37-1.07c-2.17-.44-4.39-.85-6.64-1.25-2.25-.39-4.51-.59-6.76-.59-2.89,0-5.74.14-8.57.41-.88.09-1.76.18-2.64.28-3.3.38-5.75,3.23-5.58,6.54,2.33-.39,4.68-.73,7.03-1.01,2.35-.28,4.72-.41,7.09-.41,1.26,0,2.55.05,3.85.15,1.31.1,2.59.29,3.86.56,2.06.44,4.11.82,6.17,1.16,2.06.34,4.13.5,6.23.5,2.41,0,4.85-.35,7.33-1.04,2.47-.69,4.7-1.73,6.67-3.11.43-.31.85-.74,1.26-1.23.26-.25.47-.55.64-.86.03-.05.05-.1.08-.14.05-.09.09-.18.13-.28Z"/></g></svg>