<?xml version="1.0" encoding="UTF-8"?><svg id="_レイヤー_2" xmlns="http://www.w3.org/2000/svg" viewBox="0 0 231.69 229.58"><defs><style>.cls-1{fill:#ffffff;}</style></defs><g id="_レイヤー_1-2"><path class="cls-1" d="M198.5,83.03c-.54-.83-1.45-1.35-2.44-1.42-.67-.05-1.35-.24-1.97-.61-.62-.36-1.13-.85-1.5-1.42-.54-.83-1.45-1.35-2.44-1.42-.67-.05-1.35-.24-1.97-.61-.65-.38-1.16-.89-1.54-1.48l-.06,14.24c0,1.6,1.72,2.6,3.1,1.81l12.37-7.07c-.7-.04-1.4-.24-2.05-.62-.62-.36-1.13-.85-1.5-1.42Z"/><path class="cls-1" d="M228.78,37.15l-13.6-7.94c-2.89-1.69-6.56-.65-7.97,2.27l-18.09,37.39c-.06.12-.08.24-.13.36.88-.31,1.85-.35,2.77-.09,1.08.32,1.91.95,2.48,1.75.6.85,1.49,1.47,2.53,1.55.67.05,1.34.24,1.97.61.62.36,1.12.85,1.49,1.41.57.87,1.55,1.33,2.59,1.44.97.1,1.93.51,2.74,1.29.68.66,1.12,1.53,1.29,2.45.08-.1.17-.18.25-.29l23.65-34.15c1.84-2.66.94-6.37-1.95-8.05Z"/><path class="cls-1" d="M68.51,81.6c10.58-9.54,22.96-32.24,42.02-32.24s29.04,22.54,55.5,38.63h0c-11.17,5.65-33.2,4.8-61.89-4.37-18.97-6.07-35.63-2.02-35.63-2.02Z"/><path class="cls-1" d="M127.21,0l3.38,11.93c.78,2.75,2.85,4.94,5.55,5.88l10.42,3.62-10.42,3.62c-2.7.94-4.77,3.13-5.55,5.88l-3.38,11.93-3.38-11.93c-.78-2.75-2.85-4.94-5.55-5.88l-10.42-3.62,10.42-3.62c2.7-.94,4.77-3.13,5.55-5.88l3.38-11.93Z"/><path class="cls-1" d="M70.38,88.99c-.66-.24-1.34-.45-2.03-.63-.15-.04-.22.05-.25.11-.03.06-.05.17.08.26,2.05,1.35,3.62,3.02,4.79,5.08.89,1.56.99,3.12.29,4.62-1.53,3.32-6.79,5.71-11.03,6.53-3.63.7-7.4,1.1-10.91,1.17-3.53-.07-7.3-.47-10.93-1.17-4.24-.81-9.5-3.2-11.03-6.53-.69-1.51-.6-3.06.29-4.62,1.17-2.07,2.74-3.73,4.79-5.08.13-.09.11-.2.08-.26-.02-.05-.07-.12-.18-.12-.02,0-.04,0-.07,0-.68.18-1.36.39-2.02.63-4.02,1.32-7.05,4.09-7.93,7.24-.69,2.47-.03,4.98,1.91,7.24.34.43.65.77.98,1.06,4.2,3.63,9.84,5.65,17.74,6.36l.73.06c.29.02.58.05.87.07l2.09.11c.89.04,1.78.07,2.65.09.9-.02,1.79-.05,2.68-.09l2.09-.11c.29-.02.58-.04.87-.07l.73-.06c7.91-.71,13.55-2.73,17.74-6.36.25-.22.49-.48.76-.8,2.09-2.31,2.83-4.87,2.16-7.4-.85-3.19-3.89-6-7.95-7.33Z"/><path class="cls-1" d="M43.25,86.67s-.88-1.48-1.14-2.28c-.88-2.23-.37-4.87,1.39-7.25l.83-1.12-1.25.54c-2.82,1.21-4.59,4.69-4.03,7.93.15.97.64,2.13,1.03,2.93.24.49.51.96.78,1.41l.16.27c1.73,2.92,1.5,6.17-.63,8.92l-.96,1.24,1.39-.65c1.93-.9,3.29-2.54,3.82-4.6.62-2.39.1-5.14-1.39-7.34Z"/><path class="cls-1" d="M52.13,85.23s-.95-1.61-1.23-2.48c-.94-2.41-.35-5.35,1.57-7.85l.92-1.19-1.34.6c-3.02,1.36-4.84,5-4.23,8.48.06.34.15.71.26,1.09.25.87.63,1.74,1.14,2.65.14.25.25.44.31.54,2.31,3.36,2.18,7.11-.35,10.3l-1.06,1.34,1.5-.75c2.09-1.05,3.48-2.76,4.04-4.97.63-2.52.08-5.36-1.52-7.77Z"/><path class="cls-1" d="M61.74,84.79l-.11-.19c-.3-.53-.59-1.03-.83-1.57-.51-1.13-1.37-3.23-1.34-4.59.03-1.88.83-3.9,2.33-5.83l.96-1.25-1.39.66c-1.04.49-2.01,1.3-2.88,2.41-1.63,2.09-2.18,5.18-1.41,7.84.36,1.55,1.62,3.62,1.64,3.66,2.55,3.72,2.37,7.99-.49,11.44l-1.2,1.45,1.64-.86c2.16-1.14,3.63-2.93,4.26-5.2.7-2.51.27-5.42-1.18-7.97Z"/><path class="cls-1" d="M136.83,38.31l1.46,4.78c.4,1.3,1.34,2.37,2.58,2.92l3.68,1.65-3.68,1.65c-1.24.56-2.18,1.62-2.58,2.92l-1.46,4.78-1.46-4.78c-.4-1.3-1.34-2.37-2.58-2.92l-3.68-1.65,3.68-1.65c1.24-.56,2.18-1.62,2.58-2.92l1.46-4.78Z"/><path class="cls-1" d="M152.35,134.94c-.65.38-3.55.44-6.59,1.04,2.35-3.89,2.46-8,2.46-8-.47.8-4.15,2.72-6.86,5.42-.96-2.87-2.33-5.35-2.31-6.1,0,0-2.06,3.5-2.08,7.97-1.76-1.04-3.26-1.79-3.57-2.19,0,0,.67,2.97,2.74,5.93-.33.22-.95.53-1.42.62,1.12,1.12,2.93,2.05,4.06,2.31-2,2.29-3.24,2.56-3.24,2.56,0,0,.65.14,1.05.36.34.18.79.04,1.07-.21.88-.8,1.52-1.56,1.99-2.25,1.27,1.6,3.32,1.93,4.37,2.34-.21-.37-.44-1.19-.47-1.7,3.38.11,6.01-.87,6.01-.87-.48-.05-1.65-.78-3.18-1.6,3.91-2.22,5.98-5.63,5.98-5.63Z"/><circle class="cls-1" cx="180.53" cy="168.2" r="2.56"/><path class="cls-1" d="M196.78,173.44c-.38-.25-.8-.53-1.24-.89-2.52-2.02-3.48-3.4-4.44-6.45-5.35-16.91-18.68-16.13-18.82-16.13-3.51.05-2.94,1.25-1.25,1.44,0,0,3.53.17,7.56,2.49-1.1-.1-2.09.13-2.61.82-1.11,1.45.28,4.37,2.24,5.86,1.96,1.49,5.15,2.06,6.26.6.34-.44.44-1.02.36-1.66,1.44,1.96,2.73,4.38,3.68,7.39.13.4.26.78.39,1.14,0,0,0,0,0,0,.94,5.36-1.42,9.09-4.52,9.42-.01,0-.02,0-.04,0-6.97-2.11-14.58-2.03-19.93,3.43,7.01-2.68,14.06-2.03,21.23-.55,1.59.29,3.21.59,4.87.79,7.38,1.26,27.5,7.27,32.52,4.23,4.24-2.57-14.31-6.19-26.27-11.94Z"/><path class="cls-1" d="M163.2,24.82l-3.21,6.03c-.87,1.64-.99,3.57-.33,5.31l1.96,5.15-5.15-1.96c-1.73-.66-3.67-.54-5.31.33l-6.03,3.21,3.21-6.03c.87-1.64.99-3.57.33-5.31l-1.96-5.15,5.15,1.96c1.73.66,3.67.54,5.31-.33l6.03-3.21Z"/><path class="cls-1" d="M116.33,29.06l-3.04,5.71c-.83,1.55-.94,3.38-.32,5.03l1.86,4.88-4.88-1.86c-1.64-.63-3.48-.51-5.03.32l-5.71,3.04,3.04-5.71c.83-1.55.94-3.38.32-5.03l-1.86-4.88,4.88,1.86c1.64.63,3.48.51,5.03-.32l5.71-3.04Z"/><path class="cls-1" d="M167.59,114.23s-2.74,20.7-15.28,26.31c2.65,2.49,11.03,4.47,17.67,1.57,5.32-13.33,5.19-28.11,5.19-28.11l-7.58.23Z"/><path class="cls-1" d="M175.85,101.12c-.37-.07-.73-.11-1.09-.16l.7-2.97c.19-.79-.39-1.56-1.21-1.6l-1.13-.05c-.74-.03-1.36.55-1.36,1.29l-.02,3.13c-13.72.14-16.48,14.88-9.78,19.57,0,0-3.81-12.03,10.2-11.34,12.52.62,8.54,12.91,5.02,13.82,11.57-1.17,11.77-19.37-1.32-21.69Z"/><path class="cls-1" d="M142.98,114.96c7.05-3.62,7.79-14.52,7.79-14.52-.86.9-5.9,4.85-10.38,7.12.24-6.4-1.52-13.02-1.07-14.52,0,0-4.8,5-6.86,12.38-2.62-4.3-5.74-7.79-6.01-9.02,0,0-1.8,6.49-.15,13.73-2.66-.83-4.82-1.36-5.4-1.86,0,0,1.71,4.28,5.57,8.14-.64.56-1.86,1.26-2.55,1.45,1.64.76,4.28,2.81,7.59,2.42-.3,1.36-.5,3.01-.49,4.99,0,.61.34,1.32.92,1.5.69.21,1.58.81,1.58.81,0,0-1.03-1.77-.5-6.84,1.56,1.02,4.66,2.05,7.23,2.05-.41-.67-.73-1.77-.82-2.42,5.81-1.06,11.34-4.72,11.34-4.72-.83.11-4.61.14-7.79-.69Z"/><circle class="cls-1" cx="147.04" cy="165.06" r="2.44"/><path class="cls-1" d="M162.55,169.7s-.95-1.27-1.88-2.17c1.18-.52,2.52-1.38,2.52-1.38-6.36-8.06-12.53-.44-12.53-.44,0,0,.01,0,.02,0,0,0-.02,0-.02,0,0,0,3.1,9.31,11.89,3.98Z"/><path class="cls-1" d="M147.41,181.25s.92-1.3,1.48-2.46c.86.97,2.09,1.97,2.09,1.97,5.7-8.54-3.46-12.05-3.46-12.05,0,0,0,.01,0,.02,0,0,0-.02,0-.02,0,0-7.89,5.83-.11,12.53Z"/><path class="cls-1" d="M131.74,170.43s1.52.47,2.8.65c-.65,1.12-1.23,2.6-1.23,2.6,9.89,2.78,10.39-7.01,10.39-7.01,0,0-.01,0-.02,0,0,0,.02-.01.02-.01,0,0-7.98-5.7-11.96,3.77Z"/><path class="cls-1" d="M137.2,152.18s.02,1.59.24,2.86c-1.26-.28-2.85-.37-2.85-.37.41,10.26,9.88,7.72,9.88,7.72,0,0,0,0-.01-.02,0,0,.02.01.02.01,0,0,2.96-9.35-7.28-10.21Z"/><path class="cls-1" d="M156.23,151.73s-1.5.51-2.65,1.12c-.13-1.29-.53-2.82-.53-2.82-9.64,3.56-4.29,11.78-4.29,11.78,0,0,0,0,.01-.02,0,0,0,.02,0,.02,0,0,9.81-.07,7.46-10.07Z"/><path class="cls-1" d="M113.55,107.39l.82-1.12c1.18-1.61.76-3.88-.92-4.96l-3.14-2.03.98-1.45c.23-.34.14-.81-.2-1.04l-1.39-.94c-.34-.23-.81-.14-1.04.2l-1.02,1.51-16.46-10.65c-.24-.15-.5-.27-.78-.32-1.19-.2-4.43-.21-6.95,4.76-2.34,4.61-.61,7.73.34,8.96.29.37.69.63,1.14.76l15.63,4.43-6.73,11.93c1.32-.41,2.77-.73,4.35-.96l3.47-6.15.39,5.78c.63-.03,1.27-.04,1.94-.04h0s.06,0,.06,0h.07s0,0,0,0c.43,0,.84.02,1.25.03l-.41-6.1,4.19,6.37c1.66.21,3.18.51,4.56.9l-6.5-9.88,3.51,1c1.06.3,2.19-.09,2.84-.98ZM90.95,95.84c-1.31,2.82-3.54,4.33-4.96,3.38-1.43-.95-1.51-4-.2-6.82,1.31-2.82,3.54-4.33,4.96-3.38,1.43.95,1.51,4,.2,6.82Z"/><path class="cls-1" d="M128.33,153.11c0-2.27-.6-4.69-1.65-7.07-3.96-8.95-1.32-24.6-22.64-24.61h0s0,0,0,0c0,0,0,0,0,0h0c-21.32,0-18.67,15.66-22.64,24.61-1.04,2.34-1.63,4.72-1.65,6.96,0,.06,0,.11,0,.17,0,.05,0,.1,0,.15,0,.18.01.36.02.54,0,.06,0,.12.01.18.13,1.75.63,3.38,1.58,4.82,3.51,5.94,12.33,10.16,22.68,10.16s19.12-4.19,22.64-10.11c1.12-1.67,1.64-3.62,1.65-5.69,0-.02,0-.03,0-.05,0-.02,0-.04,0-.06ZM109.28,151.93c-2.25-3.53.78-.77,3.43-1.42s5.19.68,5.17,3.01c-.02,2.58-6.34,1.94-8.6-1.59ZM103.2,146.68c-9.4,0-13.94-2.89-13.53-8.75.42-6.07,6.01-10.94,14.01-10.94,10.81,0,14.43,4.7,15.68,11.23s-6.75,8.46-16.15,8.46Z"/><path class="cls-1" d="M109.8,135.35c-2.46,0-4.46,2-4.46,4.46s2,4.46,4.46,4.46,4.46-2,4.46-4.46-2-4.46-4.46-4.46Z"/><path class="cls-1" d="M106.46,134.06c2.64.79,6.07-1.92,4.97-3.31-.99-1.25-2.83-.73-3.87.89s-3.74,1.62-1.1,2.42Z"/><path class="cls-1" d="M112.56,174.12c-1.01-1.04-15.03.48-15.5,1.44l-4.02,8.11c-.72,1.45,3.58,4.64,3.58,4.64l14.22,5.83c.73.3,1.55.29,2.27,0l2.42-1.02.85-5.6c.08-.38.9-1.73,1.13-2.04,0,0-1.98-8.29-4.96-11.34ZM113.06,185.44s-.65,3.93-.76,6.78c0,.18-.79.13-1.42-.04-.44-.12-.77-.49-.85-.94l-.44-2.66c-.02-.11-.02-.21,0-.32l.25-2.2c.04-.31-.14-.62-.43-.74l-7.08-3.13c-.82-.36-1.55-.91-2.11-1.61-.37-.46-.8-1.01-1.15-1.53-.2-.28.13-.63.43-.47l3.53,1.96,6.9,2.75,2.52.61c.47.11.77.57.69,1.05l-.09.5ZM110.62,178.98c-.27-.59-1.69-2.14-1.69-2.14l-4.96-.53-1.34-.57s7.16-.29,7.85.13,2.81,3.59,2.81,3.59c0,0-2.15,0-2.67-.49Z"/><path class="cls-1" d="M128.13,171.1s-1.32.13-2.37.41c.22-1.07.29-2.39.29-2.39-8.5,1.06-6.33,8.73-6.33,8.73,0,0,0,0,.01-.01,0,0-.01.01-.01.01,0,0,7.77,1.79,8.41-6.75Z"/><path class="cls-1" d="M36.49,171.21c-.05-.4-.08-.81-.07-1.24,0,.44.02.85.07,1.24Z"/><path class="cls-1" d="M37.1,168.25c.28-.49.63-1.03,1.02-1.62-.39.59-.74,1.14-1.02,1.62Z"/><path class="cls-1" d="M39.24,176c-.21-.15-.41-.32-.6-.5.19.18.4.34.6.5Z"/><path class="cls-1" d="M43.68,133.58c.04.15.08.34.14.56-.05-.22-.1-.41-.14-.56Z"/><path class="cls-1" d="M43.9,134.49c.06.25.13.53.21.83-.08-.3-.15-.58-.21-.83Z"/><path class="cls-1" d="M44.38,136.31c.1.35.2.73.31,1.12-.11-.39-.21-.77-.31-1.12Z"/><path class="cls-1" d="M41,176.96c-.23-.09-.45-.19-.67-.3.22.11.44.21.67.3Z"/><path class="cls-1" d="M36.75,172.51c-.1-.32-.17-.66-.22-1.01.06.35.13.69.22,1.01Z"/><path class="cls-1" d="M37.76,174.53c-.17-.23-.32-.47-.46-.73.14.26.29.5.46.73Z"/><path class="cls-1" d="M40.14,176.57c-.26-.14-.52-.29-.77-.47.25.17.5.33.77.47Z"/><path class="cls-1" d="M38.47,175.35c-.22-.22-.44-.45-.63-.71.2.26.41.49.63.71Z"/><path class="cls-1" d="M41.98,177.27c-.27-.07-.54-.15-.81-.24.27.1.54.18.81.24Z"/><path class="cls-1" d="M42.82,177.43c-.22-.03-.44-.07-.67-.12.23.05.45.09.67.12Z"/><path class="cls-1" d="M37.18,173.57c-.15-.3-.29-.62-.4-.97.11.34.25.66.4.97Z"/><path class="cls-1" d="M43.71,177.49s.04,0,.06,0c-.25,0-.5-.01-.76-.04.24.02.47.04.7.04Z"/><path class="cls-1" d="M46.71,143.86c-.21-.6-.42-1.2-.61-1.79.19.59.4,1.19.61,1.79h0Z"/><path class="cls-1" d="M45.82,177c-.14.08-.29.16-.46.22.17-.06.32-.13.46-.22Z"/><path class="cls-1" d="M46.26,176.64c-.11.12-.23.23-.37.32.15-.1.27-.21.37-.32Z"/><path class="cls-1" d="M45.25,177.26c-.19.06-.39.11-.61.15.22-.04.42-.09.61-.15Z"/><path class="cls-1" d="M53.87,140.15c.53-1.11,1.05-2.25,1.54-3.45-.48,1.2-1,2.34-1.54,3.45Z"/><path class="cls-1" d="M44.51,177.43c-.2.03-.41.05-.63.05.22,0,.43-.02.63-.05Z"/><path class="cls-1" d="M46.56,176.14c-.05.15-.13.29-.23.42.1-.13.18-.26.23-.42Z"/><path class="cls-1" d="M46.85,144.25c.17.49.36.98.54,1.46-.19-.49-.37-.97-.54-1.46Z"/><path class="cls-1" d="M46.85,144.25c-.05-.13-.09-.26-.14-.39h0c.05.13.09.26.14.39Z"/><path class="cls-1" d="M51.82,139.8c.36-.73.72-1.47,1.08-2.22-.22-2.11-.78-4.16-1.11-6.59-2.34,1.49-3.76,5.63-4.53,8.8.59,1.83,1.28,3.76,2.03,5.59.77-1.99,1.65-3.8,2.52-5.57Z"/><path class="cls-1" d="M67.36,143.9c-1.67-.37-3.8.08-5.93.88-.28.86-.62,1.74-1.06,2.65l-.62,1.31c-.8,1.68-1.69,3.53-2.62,5.55,5.35-2.58,9.29-5.53,10.23-10.39Z"/><path class="cls-1" d="M57.05,131.43c-.43,1.94-1.01,3.66-1.65,5.27-.48,1.2-1,2.34-1.54,3.45-.31.64-.62,1.28-.93,1.91-1.18,2.39-2.32,4.78-3.16,7.59-.09.3-.18.59-.26.89-.07-.13-.14-.27-.2-.4-.69-1.37-1.33-2.88-1.93-4.43-.19-.49-.37-.97-.54-1.46-.05-.13-.09-.26-.14-.39-.21-.6-.42-1.2-.61-1.79-.55-1.67-1.03-3.27-1.41-4.64-.11-.39-.21-.77-.31-1.12-.1-.35-.18-.68-.26-.98-.08-.3-.15-.58-.21-.83-.03-.12-.06-.24-.09-.35-.05-.22-.1-.41-.14-.56-.07-.31-.11-.47-.11-.47,0,0-2.89.43-1.63,10.17.67,5.22,1.48,7.13,1.94,8.68.05.17.1.34.14.5.04.17.08.33.11.5.03.17.06.34.08.52.03.27.05.56.05.88,0,.32-.02.67-.05,1.06-.02.26-.05.54-.09.85-.05.36-.15.75-.3,1.17s-.35.86-.59,1.33c-1.25,2.48-3.52,5.51-5.09,7.87-.39.59-.74,1.14-1.02,1.62-.42.73-.67,1.32-.68,1.71,0,.44.02.85.07,1.24.01.1.03.2.04.3.06.35.13.69.22,1.01,0,.03.02.06.02.1.11.34.25.66.4.97.04.08.08.15.12.23.14.26.29.5.46.73.03.04.05.08.08.12.2.25.41.49.63.71.05.05.11.1.17.16.19.18.4.34.6.5.05.03.09.07.14.1.25.17.5.33.77.47.06.03.12.06.19.09.22.11.44.21.67.3.06.02.12.05.17.07.27.1.54.18.81.24.06.01.11.02.17.04.23.05.45.09.67.12.06,0,.12.02.19.02.26.03.51.04.76.04.04,0,.08,0,.12,0,.22,0,.43-.02.63-.05.04,0,.09-.01.13-.02.22-.04.42-.09.61-.15.04-.01.08-.03.12-.04.17-.06.32-.13.46-.22.02-.01.05-.02.07-.04.15-.1.27-.21.37-.32.02-.03.05-.06.07-.09.1-.13.18-.26.23-.42,2.62-8.54,5.45-15.43,7.98-21.02,1.42-3.15,2.75-5.89,3.89-8.28.22-.46.41-.91.59-1.36,3.02-7.62-.24-12.46-1.95-14.05Z"/><path class="cls-1" d="M43.88,177.48s-.08,0-.12,0c.04,0,.08,0,.12,0Z"/><path class="cls-1" d="M39.37,176.11s-.09-.07-.14-.1c.05.03.09.07.14.1Z"/><path class="cls-1" d="M45.36,177.22s-.08.03-.12.04c.04-.01.08-.03.12-.04Z"/><path class="cls-1" d="M46.33,176.55s-.04.06-.07.09c.02-.03.05-.06.07-.09Z"/><path class="cls-1" d="M45.89,176.96s-.05.02-.07.04c.02-.01.05-.02.07-.04Z"/><path class="cls-1" d="M44.64,177.41s-.09.01-.13.02c.04,0,.09-.01.13-.02Z"/><path class="cls-1" d="M36.53,171.51c-.02-.1-.03-.2-.04-.3.01.1.03.2.04.3Z"/><path class="cls-1" d="M37.84,174.64s-.05-.08-.08-.12c.03.04.05.08.08.12Z"/><path class="cls-1" d="M41.17,177.03c-.06-.02-.12-.05-.17-.07.06.02.12.05.17.07Z"/><path class="cls-1" d="M38.64,175.51c-.06-.05-.11-.1-.17-.16.05.05.11.1.17.16Z"/><path class="cls-1" d="M40.33,176.66c-.06-.03-.12-.06-.19-.09.06.03.12.06.19.09Z"/><path class="cls-1" d="M43.01,177.45c-.06,0-.12-.02-.19-.02.06,0,.12.02.19.02Z"/><path class="cls-1" d="M36.78,172.61s-.02-.06-.02-.1c0,.03.01.06.02.1Z"/><path class="cls-1" d="M37.3,173.8c-.04-.07-.08-.15-.12-.23.04.08.08.15.12.23Z"/><path class="cls-1" d="M42.15,177.31c-.06-.01-.11-.02-.17-.04.06.01.11.02.17.04Z"/><path class="cls-1" d="M83.94,121.7s-3.02-2.95-6.58-3.39c.28-2.65-.88-5.52-2.58-7.36,0,0-4.2,1.62-5.99,4.89-2.26-1.58-5.49-1.86-7.98-1.13,0,0-.35,3.72,1.19,6.69-2.16.85-4.03,2.65-5.03,4.57,0,0,3.24,3.78,7.19,4.08-.14,2.53.98,5.2,2.59,6.95,0,0,3.77-1.43,5.7-4.35,2.26,1.52,5.43,1.79,7.89,1.07,0,0,.37-3.89-1.29-6.89,2.21-.99,4.03-3.04,4.91-5.13ZM75.87,124.02l-.14.4.08.42c.11.62-.11,1.26-.6,1.67l-.32.27-.14.4c-.21.6-.73,1.04-1.35,1.15l-.42.08-.32.27c-.48.41-1.15.53-1.75.32l-.4-.14-.42.08c-.62.11-1.26-.11-1.68-.6l-.27-.32-.4-.14c-.6-.21-1.04-.73-1.15-1.35l-.08-.42-.27-.32c-.41-.48-.53-1.15-.32-1.75l.14-.4-.08-.42c-.11-.62.11-1.26.6-1.67l.32-.27.14-.4c.21-.6.73-1.04,1.35-1.15l.42-.08.32-.27c.48-.41,1.15-.53,1.75-.32l.4.14.42-.08c.62-.11,1.26.11,1.68.6l.27.32.4.14c.6.21,1.04.73,1.15,1.35l.08.42.27.32c.41.48.53,1.15.32,1.75Z"/><path class="cls-1" d="M69.39,122.26c-.98.84-1.1,2.31-.26,3.29.84.98,2.31,1.1,3.29.26.98-.84,1.1-2.31.26-3.29s-2.31-1.1-3.29-.26Z"/><path class="cls-1" d="M161.96,46.61c-2.9,3-17.55,14.31-17.55,17.41.58.74,2.49,2.76,4.95,5.22,0,0,0-.02,0-.03.33-2.2,3.32-7.87,3.32-7.87,0,0,2.38,1.93,6.3,4.27-.75,1.99-.58,9.39-.5,12.1,3.45,2.94,6.46,5.09,7.55,4.8,2.93-.79-1.78-34.87-4.06-35.9Z"/><path class="cls-1" d="M179.45,66.56s-.7-2.02-1.7-4.73c-1.67-4.58-4.21-11.29-5.83-14.41-2.29-1.8-5.94-.73-7.71-.82,2.65,3.87,7.59,32.71,6.29,35.68,2.12-1.64,6.08-8.07,8.52-12.38.58-1.02.82-2.23.43-3.35Z"/><path class="cls-1" d="M16.59,119.12c-.39-.4-.81-.72-1.17-.97-2.26-1.52-2.43-3.83-2.42-4.65-3.08.29-5.93,1.51-8.13,3.53-1.57,1.44-2.73,3.24-3.41,5.21-.05.14-.12.28-.16.43l-.07.16c-1.03,1.68-1.82,3.87-.61,7.01.22-.36.44-.67.63-.87,1.13-1.48,2.42-2.71,3.89-3.82.25-.19.61-.14.8.12.17.22.14.52-.03.72-1.56,2.03-3.33,5.03-3.16,7.58.64.87,1.41,1.8,2.34,2.79,2.44,2.6,5.81,4.11,9.36,4.26-.72-3.46.57-5.63,1.48-7.14.61-1.01.92-1.56.73-2.06-.98-2.61-.76-4.91.77-7.96.92-1.84.16-3.31-.82-4.32Z"/><path class="cls-1" d="M37.19,123.09l-.07-.15c-.71-2.33-2.03-4.53-3.82-6.37-.37-.38-.75-.73-1.15-1.06-4.92-4.21-11.77-5.21-16.62-2.31,0,.07.03.14.02.21,0,.09-.18,2.02,1.59,3.21.9.61,1.6,1.29,2.13,2.02,1.25,1.72,1.46,3.7.49,5.64-1.3,2.6-1.49,4.35-.69,6.47.52,1.37-.19,2.54-.87,3.68-.94,1.56-1.99,3.31-1.1,6.43,2.92.79,5.89.89,8.65.36.95-1.3,1.73-2.76,2.39-4.04,1.91-3.54,1.38-7.3.54-11.15-.62-2.51-1.44-5.13-3.08-7.04-.43-.41.23-1.08.64-.64,2.02,2.07,2.99,4.71,3.83,7.31,1.22,3.94,1.96,8.56.14,12.41-.3.7-.62,1.41-.96,2.11,3.15-1.31,5.82-3.5,7.51-6.43,2.21-3.83,2.35-7.41.41-10.66Z"/><path class="cls-1" d="M3.24,115.33c2.69-2.47,6.27-3.87,10.09-3.95,3.35-2.06,7.59-2.39,11.61-1.22-2.07-1.86-4.14-4.1-5.19-6.39-3.77-8.21-20.55,1.99-19.42,15.31.75-1.39,1.73-2.66,2.91-3.75Z"/><path class="cls-1" d="M51.03,223.91c.08,1.18.12,2.88-.07,4.64h5.46c-.29-3.96-.55-7.76-.7-10.07-2.02,1.99-3.56,3.85-4.69,5.43Z"/><path class="cls-1" d="M64.64,186.17c.05,1.77.12,3.83.22,6.08,1.41-.09,2.83-.15,4.25-.18v16.93c-.99.51-1.94,1.02-2.85,1.55.63,5.33,1.48,10.4,2.64,14.32,8.42-13.76,22.71-19.92,32.23-22.59v-6.96c-11.3-5.58-23.89-8.41-36.49-9.15ZM71.87,207.65v-15.61c.32,0,.65,0,.97,0,1.36.02,2.73.07,4.09.14v13.42c-1.79.65-3.47,1.33-5.06,2.05ZM79.71,192.37c1.59.13,3.18.3,4.77.51v10.42c-1.66.42-3.25.87-4.77,1.36v-12.29ZM87.25,193.3c1.45.24,2.89.51,4.32.82v7.71c-1.49.25-2.93.53-4.32.84v-9.36ZM98.35,200.92c-1.37.14-2.71.3-4.01.48v-6.65c1.35.34,2.69.71,4.01,1.11v5.05Z"/><path class="cls-1" d="M66.53,228.55c-1.45-4.47-2.46-10.23-3.16-16.23-.79-6.83-1.19-13.96-1.38-19.84-.08-2.39-.12-4.57-.15-6.45-.04-2.88-.03-5.04-.02-6.06-.91.25-2.72.66-5.03.87v4.88c-1.39.09-3.03.09-4.51.03v-4.83c-1.63-.09-3.36-.33-5.11-.8,0,4.45-.3,30.32-6.93,49.45h7.19c1.29-3.94,2.23-10.33,2.91-16.91.17-.01.34-.02.51-.03.17,0,.34-.02.51-.02,1.9-.08,3.72-.02,5.21.08.17.01.33.02.49.04.17.01.34.03.5.04.1,1.29.2,2.54.31,3.72.5,5.64,1.04,9.95,1.33,12.07.06.43.11.79.14,1.03h7.52c-.12-.33-.23-.68-.34-1.03ZM51.87,190.2c.14,0,.28-.01.42-.02.03,0,.05,0,.08,0,.17,0,.33,0,.5-.01,1.05-.02,2.06,0,2.96.06.17,0,.33.02.49.03.17.01.33.02.49.03v.83c0,.09,0,.18,0,.27-.01,1.62,0,3.23.01,4.83-.16.01-.33.02-.5.03-.16,0-.33.01-.49.02-1.05.04-2.17.03-3.23,0-.17,0-.34,0-.5-.02-.17,0-.33-.02-.5-.02.14-2.54.23-4.63.28-6.02ZM51.33,200.71c.17-.01.33-.02.5-.02.17,0,.34-.02.5-.02,1.28-.04,2.52,0,3.59.05.17,0,.33.02.49.03.17.01.34.02.5.04.07,2.25.17,4.43.29,6.54-.16.01-.33.02-.5.03-.16,0-.32.02-.49.02-1.4.06-2.95.05-4.38,0-.17,0-.34-.01-.5-.02-.17,0-.33-.02-.5-.02.19-2.29.35-4.53.49-6.62Z"/><path class="cls-1" d="M89.04,176.73c-.9-4.62-5.46-6.16-8.81-5.83.3,1.2.3,2.49.19,3.79-.03.41-.08.81-.13,1.22.13.08.27.18.4.33.69.7,1.76.7,2.35-.18.14-.2.42-.25.61-.09.38.4-.13,1.07-.39,1.48-.75.99-2.08,1.19-3.25.88-.04.44-.08.87-.09,1.28-.02.77,0,1.53.29,2.23.13.31.32.62.59.91,2.23,1.58,5.4,1.03,7.17-1.29.75-.98,1.11-2.11,1.14-3.23.06-.43.05-.92-.06-1.48Z"/><path class="cls-1" d="M77.08,165.79c-1.06-.93-2.37-1.4-3.7-1.46.5,2.24.13,4.87-.06,6.93-.1,1.08-.3,2.24-.39,3.38-.07.89-.08,1.77.06,2.59.03.15.05.29.09.44.27.75.7,1.44,1.33,1.99,1.01.88,3.13,1.74,4.44,1.48-1.23-2.26-.33-6.03.11-9.16.05-.33.09-.66.12-.98.02-.2.04-.4.05-.59,0-1.74-.7-3.44-2.07-4.63Z"/><path class="cls-1" d="M71.76,162.18c-.38-1-.92-1.96-1.61-2.83-2.94-3.79-9.05-3.04-11.73.46-3.35,4.37-2.14,9.62,1.33,11.63,1.89,1.09,3.31,1.62,5.32,1.38-.77-1.81-.05-4.06-.25-5.86-.08-.61-.21-1.47-.5-1.52,0,0,0,0,0,0-.12-.04-.28-.04-.36-.03-.01,0-.02,0-.04,0,0,0,0,0,0,0h0c-.28.07-.67.54-.54.91.04.24.24.5.5.77.07.07.03.21-.07.23-2.6.43-2.87-3.51-.5-4.26.95-.33,1.92-.09,2.62.55.93.88.8,2.41.78,3.29-.05,1.17-.19,2.26-.25,3.34-.01.24-.03.48-.03.72,0,.42,0,.85.06,1.27.03.15.05.3.09.45.29,1.19.92,2.28,1.89,3.13.86.76,1.89,1.21,2.96,1.38-.05-.18-.11-.37-.14-.55-.54-2.74-.09-5.4.31-8.04.14-.94.27-1.87.35-2.81.03-.45.06-.91.06-1.36,0-.76-.05-1.5-.26-2.24Z"/></g></svg>