<svg width="19" height="22" viewBox="0 0 19 22" fill="none" xmlns="http://www.w3.org/2000/svg">
<path d="M7.43982 9.20962C7.43982 8.65266 7.66107 8.11852 8.05489 7.7247C8.44872 7.33087 8.98286 7.10962 9.53982 7.10962C10.0968 7.10962 10.6309 7.33087 11.0247 7.7247C11.4186 8.11852 11.6398 8.65266 11.6398 9.20962C11.6398 9.76657 11.4186 10.3007 11.0247 10.6945C10.6309 11.0884 10.0968 11.3096 9.53982 11.3096C8.98286 11.3096 8.44872 11.0884 8.05489 10.6945C7.66107 10.3007 7.43982 9.76657 7.43982 9.20962Z" fill="white"/>
<path fill-rule="evenodd" clip-rule="evenodd" d="M0.439819 9.20963C0.441304 6.79713 1.40071 4.48395 3.10713 2.77858C4.81355 1.07321 7.12732 0.115234 9.53982 0.115234C14.5644 0.115234 18.6398 4.18783 18.6398 9.20963C18.6398 12.9532 16.7666 15.9198 14.759 17.9246C13.8703 18.8145 12.8759 19.5922 11.798 20.2402C11.3472 20.5062 10.9258 20.7162 10.559 20.859C10.2132 20.9962 9.85062 21.1026 9.53982 21.1026C9.22902 21.1026 8.86642 20.9962 8.52062 20.859C8.0925 20.6845 7.6783 20.4777 7.28162 20.2402C6.20377 19.5922 5.20936 18.8145 4.32062 17.9246C2.31302 15.9198 0.439819 12.9532 0.439819 9.20963ZM9.53982 5.71103C8.61156 5.71103 7.72132 6.07978 7.06495 6.73616C6.40857 7.39254 6.03982 8.28278 6.03982 9.21103C6.03982 10.1393 6.40857 11.0295 7.06495 11.6859C7.72132 12.3423 8.61156 12.711 9.53982 12.711C10.4681 12.711 11.3583 12.3423 12.0147 11.6859C12.6711 11.0295 13.0398 10.1393 13.0398 9.21103C13.0398 8.28278 12.6711 7.39254 12.0147 6.73616C11.3583 6.07978 10.4681 5.71103 9.53982 5.71103Z" fill="white"/>
</svg>
