<svg width="16" height="16" viewBox="0 0 16 16" fill="none" xmlns="http://www.w3.org/2000/svg">
<path d="M3.53701 11.2217L0.290799 14.4672L1.36327 15.5396L4.60872 12.2934C5.8163 13.2615 7.31832 13.788 8.86601 13.7858C12.6314 13.7858 15.6874 10.7298 15.6874 6.96443C15.6874 3.19904 12.6314 0.143066 8.86601 0.143066C5.10062 0.143066 2.04465 3.19904 2.04465 6.96443C2.04244 8.51212 2.56897 10.0141 3.53701 11.2217ZM5.05742 10.6593C4.09572 9.67002 3.55857 8.34414 3.56051 6.96443C3.56051 4.03352 5.9351 1.65893 8.86601 1.65893C11.7969 1.65893 14.1715 4.03352 14.1715 6.96443C14.1715 9.89535 11.7969 12.2699 8.86601 12.2699C7.4863 12.2719 6.16043 11.7347 5.17111 10.773L5.05742 10.6593Z" fill="black"/>
</svg>
