<svg width="17" height="16" viewBox="0 0 17 16" fill="none" xmlns="http://www.w3.org/2000/svg">
<path d="M8.64097 15.9104C4.2686 15.9104 0.724304 12.3661 0.724304 7.99375C0.724304 3.62138 4.2686 0.0770874 8.64097 0.0770874C13.0133 0.0770874 16.5576 3.62138 16.5576 7.99375C16.5576 12.3661 13.0133 15.9104 8.64097 15.9104ZM8.64097 14.3271C10.3207 14.3271 11.9316 13.6598 13.1193 12.4721C14.307 11.2844 14.9743 9.67346 14.9743 7.99375C14.9743 6.31405 14.307 4.70314 13.1193 3.51541C11.9316 2.32768 10.3207 1.66042 8.64097 1.66042C6.96127 1.66042 5.35036 2.32768 4.16263 3.51541C2.9749 4.70314 2.30764 6.31405 2.30764 7.99375C2.30764 9.67346 2.9749 11.2844 4.16263 12.4721C5.35036 13.6598 6.96127 14.3271 8.64097 14.3271ZM9.43264 7.99375H12.5993V9.57709H7.8493V4.03542H9.43264V7.99375Z" fill="black"/>
</svg>
